<svg width="501" height="334" viewBox="0 0 501 334" fill="none" xmlns="http://www.w3.org/2000/svg">
<path d="M334.184 332.315C350.434 327.235 365.014 322.045 382.554 312.195C400.644 302.035 481.004 253.685 491.454 170.005C494.192 147.071 491.92 123.816 484.794 101.845C481.564 92.3754 474.864 73.3554 457.954 54.5454C437.254 31.5054 413.634 22.5754 399.784 17.5254C370.644 6.8954 346.204 7.4554 334.564 7.8354C322.004 8.2454 299.834 9.1654 274.634 20.1754C258.194 27.3554 247.974 35.5454 232.914 47.7854C209.054 67.1954 205.914 75.2754 164.174 115.355C152.714 126.355 143.294 135.025 128.914 143.565C118.944 149.485 110.884 152.795 96.0145 158.835C59.4645 173.685 49.0579 176.692 37.0979 185.052C13.8379 201.322 15.3445 219.065 14.3445 222.885C11.744 232.655 11.142 242.848 12.5745 252.855C15.6245 272.925 26.4345 286.045 33.1445 293.985C42.3549 304.785 53.5159 313.755 66.0445 320.425C74.742 325.014 83.7508 328.987 93.0045 332.315H334.184Z" fill="#EFEDEF"/>
<path d="M273.122 13.5166C299.368 2.05636 322.457 1.08951 335.548 0.664025C347.664 0.270265 373.123 -0.310975 403.483 10.7625C417.909 16.024 442.51 25.3258 464.074 49.3202C481.682 68.9125 488.661 88.7269 492.023 98.5883C499.443 121.473 501.809 145.695 498.96 169.583C488.081 256.751 404.373 307.109 385.531 317.694" stroke="#6A8D99" stroke-miterlimit="10"/>
<path d="M345.921 331.825H311.491L306.961 278.936H350.451L345.921 331.825Z" fill="#FFE3CB"/>
<path d="M311.491 331.825C314.164 322.946 316.941 314.102 319.734 305.262C321.112 300.836 322.557 296.432 323.97 292.018L328.231 278.782C328.263 278.681 328.327 278.594 328.412 278.531C328.497 278.469 328.6 278.436 328.706 278.436C328.811 278.436 328.914 278.469 329 278.531C329.085 278.594 329.148 278.681 329.181 278.782L333.442 292.018C334.854 296.432 336.302 300.835 337.679 305.262L341.85 318.527L345.921 331.825L341.384 318.679L336.948 305.5C335.455 301.111 334.034 296.699 332.577 292.299L328.231 279.091H329.181L324.834 292.299C323.378 296.699 321.954 301.11 320.462 305.499C317.517 314.289 314.556 323.074 311.491 331.825Z" fill="#904D24"/>
<path d="M306.961 278.936C310.776 287.673 314.489 296.451 318.187 305.235L323.69 318.43L329.168 331.635H328.244L333.721 318.43C335.555 314.031 337.354 309.619 339.223 305.234L344.788 292.065L350.451 278.936L345.241 292.252L339.934 305.527C338.178 309.957 336.353 314.359 334.563 318.776L329.168 332.015C329.13 332.107 329.066 332.185 328.984 332.241C328.902 332.296 328.805 332.326 328.706 332.326C328.607 332.326 328.51 332.296 328.427 332.241C328.345 332.185 328.281 332.107 328.244 332.015L322.849 318.776L317.479 305.526C313.929 296.681 310.394 287.83 306.961 278.936Z" fill="#904D24"/>
<path d="M309.226 308.099C312.472 307.893 315.719 307.796 318.966 307.716C322.212 307.625 325.459 307.612 328.706 307.599C331.952 307.61 335.199 307.624 338.446 307.714L343.316 307.854C344.939 307.937 346.562 307.985 348.186 308.099C346.562 308.212 344.939 308.261 343.316 308.344L338.446 308.483C335.199 308.574 331.952 308.587 328.706 308.599C325.459 308.586 322.212 308.573 318.966 308.482C315.719 308.402 312.472 308.305 309.226 308.099Z" fill="#904D24"/>
<path d="M351.053 274.156H306.359C305.646 274.156 305.069 274.734 305.069 275.447V277.646C305.069 278.358 305.646 278.936 306.359 278.936H351.053C351.765 278.936 352.343 278.358 352.343 277.646V275.447C352.343 274.734 351.765 274.156 351.053 274.156Z" fill="#904D24"/>
<path d="M232.14 14.3083H224.014C221.572 14.3083 219.591 16.2886 219.591 18.7314V26.8567C219.591 29.2995 221.572 31.2797 224.014 31.2797H232.14C234.582 31.2797 236.563 29.2995 236.563 26.8567V18.7314C236.563 16.2886 234.582 14.3083 232.14 14.3083Z" fill="#DC8758"/>
<path d="M181.988 332.075H175.114L202.973 206.855L217.007 210.633L181.988 332.075Z" fill="#DC8758"/>
<path d="M275.005 332.075H281.878L254.02 206.855L239.986 210.633L275.005 332.075Z" fill="#DC8758"/>
<path d="M343.739 24.3269H111.964C110.335 24.3269 109.015 25.6471 109.015 27.2756V221.106C109.015 222.734 110.335 224.055 111.964 224.055H343.739C345.367 224.055 346.688 222.734 346.688 221.106V27.2756C346.688 25.6471 345.367 24.3269 343.739 24.3269Z" fill="#FFE3CB"/>
<path d="M248.352 60.2336C248.074 60.2333 247.807 60.1254 247.607 59.9324C247.407 59.7394 247.29 59.4764 247.28 59.1987C247.27 58.921 247.368 58.6503 247.553 58.4433C247.739 58.2364 247.997 58.1094 248.274 58.089L267.965 56.6413C268.105 56.631 268.246 56.6484 268.38 56.6927C268.514 56.737 268.638 56.8072 268.745 56.8993C268.851 56.9914 268.939 57.1037 269.002 57.2296C269.066 57.3556 269.104 57.4928 269.114 57.6334C269.124 57.774 269.107 57.9153 269.063 58.0491C269.018 58.183 268.948 58.3068 268.856 58.4135C268.764 58.5203 268.652 58.6078 268.526 58.6712C268.4 58.7345 268.263 58.7724 268.122 58.7828L248.432 60.2305C248.405 60.2326 248.378 60.2336 248.352 60.2336Z" fill="#904D24"/>
<path d="M268.043 65.7486H248.353C248.068 65.7486 247.795 65.6354 247.593 65.434C247.392 65.2326 247.279 64.9595 247.279 64.6747C247.279 64.3899 247.392 64.1167 247.593 63.9154C247.795 63.714 248.068 63.6008 248.353 63.6008H268.043C268.328 63.6008 268.601 63.714 268.803 63.9154C269.004 64.1167 269.117 64.3899 269.117 64.6747C269.117 64.9595 269.004 65.2326 268.803 65.434C268.601 65.6354 268.328 65.7486 268.043 65.7486Z" fill="#904D24"/>
<path d="M268.043 72.711H248.353C248.068 72.711 247.795 72.5978 247.593 72.3964C247.392 72.195 247.279 71.9219 247.279 71.6371C247.279 71.3523 247.392 71.0792 247.593 70.8778C247.795 70.6764 248.068 70.5632 248.353 70.5632H268.043C268.328 70.5632 268.601 70.6764 268.803 70.8778C269.004 71.0792 269.117 71.3523 269.117 71.6371C269.117 71.9219 269.004 72.195 268.803 72.3964C268.601 72.5978 268.328 72.711 268.043 72.711Z" fill="#904D24"/>
<path d="M268.043 77.3902H248.353C248.068 77.3902 247.795 77.277 247.593 77.0756C247.392 76.8742 247.279 76.6011 247.279 76.3163C247.279 76.0315 247.392 75.7584 247.593 75.557C247.795 75.3556 248.068 75.2424 248.353 75.2424H268.043C268.328 75.2424 268.601 75.3556 268.803 75.557C269.004 75.7584 269.117 76.0315 269.117 76.3163C269.117 76.6011 269.004 76.8742 268.803 77.0756C268.601 77.277 268.328 77.3902 268.043 77.3902Z" fill="#904D24"/>
<path d="M155.006 193.038C154.722 193.038 154.448 192.925 154.247 192.723C154.046 192.522 153.933 192.249 153.933 191.964V57.7121C153.933 57.4272 154.046 57.1541 154.247 56.9527C154.448 56.7513 154.722 56.6382 155.006 56.6382C155.291 56.6382 155.564 56.7513 155.766 56.9527C155.967 57.1541 156.08 57.4272 156.08 57.7121V191.964C156.08 192.249 155.967 192.522 155.766 192.723C155.564 192.925 155.291 193.038 155.006 193.038V193.038Z" fill="#904D24"/>
<path d="M323.98 170.419H131.723C131.438 170.419 131.165 170.306 130.963 170.105C130.762 169.904 130.649 169.63 130.649 169.346C130.649 169.061 130.762 168.788 130.963 168.586C131.165 168.385 131.438 168.272 131.723 168.272H323.98C324.265 168.272 324.538 168.385 324.739 168.586C324.941 168.788 325.054 169.061 325.054 169.346C325.054 169.63 324.941 169.904 324.739 170.105C324.538 170.306 324.265 170.419 323.98 170.419Z" fill="#904D24"/>
<path d="M164.984 157.364C164.79 157.364 164.6 157.311 164.433 157.211C164.267 157.111 164.13 156.968 164.039 156.797C163.947 156.626 163.903 156.433 163.913 156.239C163.922 156.045 163.983 155.857 164.091 155.696L183.383 126.655C183.49 126.499 183.635 126.373 183.805 126.289C183.974 126.205 184.163 126.167 184.352 126.178C184.541 126.191 184.723 126.254 184.88 126.36C185.037 126.467 185.163 126.613 185.246 126.784L194.941 146.95L221.236 94.3987C221.332 94.2028 221.485 94.0412 221.676 93.9359C221.867 93.8306 222.085 93.7867 222.302 93.8104C222.518 93.8316 222.723 93.918 222.889 94.058C223.055 94.1981 223.175 94.3852 223.232 94.5948L232.523 128.471L240.554 114.273C240.652 114.099 240.797 113.956 240.972 113.86C241.148 113.764 241.346 113.719 241.546 113.729C241.745 113.74 241.938 113.806 242.102 113.92C242.266 114.034 242.395 114.191 242.474 114.374L253.365 139.478L261.1 117.761C261.168 117.571 261.288 117.403 261.446 117.278C261.605 117.153 261.796 117.075 261.996 117.054C262.197 117.031 262.401 117.065 262.583 117.154C262.765 117.242 262.917 117.381 263.023 117.553L270.659 129.815L297.74 75.8351C297.834 75.6478 297.981 75.4921 298.162 75.3871C298.343 75.2821 298.551 75.2324 298.761 75.2442C298.97 75.2559 299.171 75.3286 299.339 75.4533C299.508 75.5779 299.636 75.7491 299.708 75.9457L304.868 89.9721L323.032 55.9124C323.099 55.788 323.189 55.6778 323.298 55.5883C323.407 55.4987 323.532 55.4315 323.667 55.3905C323.802 55.3494 323.944 55.3354 324.084 55.3491C324.225 55.3628 324.361 55.404 324.485 55.4704C324.61 55.5368 324.72 55.627 324.809 55.736C324.899 55.8449 324.966 55.9704 325.007 56.1054C325.048 56.2403 325.062 56.382 325.049 56.5223C325.035 56.6627 324.994 56.799 324.927 56.9234L305.635 93.0978C305.537 93.2805 305.389 93.4312 305.208 93.5316C305.027 93.632 304.82 93.6778 304.614 93.6636C304.407 93.6493 304.209 93.5756 304.043 93.4513C303.877 93.327 303.751 93.1574 303.68 92.963L298.548 79.0143L271.72 132.49C271.634 132.66 271.505 132.805 271.345 132.909C271.185 133.013 271 133.072 270.809 133.081C270.619 133.087 270.431 133.044 270.262 132.955C270.094 132.867 269.951 132.736 269.849 132.576L262.377 120.578L254.475 142.763C254.402 142.966 254.271 143.143 254.097 143.27C253.923 143.397 253.714 143.469 253.499 143.476C253.284 143.484 253.071 143.426 252.889 143.311C252.707 143.195 252.564 143.028 252.478 142.83L241.362 117.207L233.11 131.794C233.006 131.979 232.848 132.129 232.658 132.225C232.469 132.32 232.254 132.357 232.043 132.331C231.832 132.305 231.634 132.217 231.473 132.078C231.312 131.939 231.196 131.755 231.14 131.55L221.902 97.8667L195.882 149.869C195.786 150.043 195.646 150.19 195.476 150.294C195.307 150.398 195.112 150.456 194.913 150.462C194.712 150.461 194.516 150.403 194.346 150.295C194.177 150.188 194.041 150.034 193.954 149.853L184.128 129.416L165.88 156.884C165.782 157.032 165.649 157.153 165.492 157.237C165.336 157.32 165.162 157.364 164.984 157.364V157.364Z" fill="#904D24"/>
<path d="M136.379 141.36C136.095 141.36 135.821 141.247 135.62 141.045C135.419 140.844 135.306 140.571 135.306 140.286V76.3163C135.306 76.0315 135.419 75.7584 135.62 75.557C135.821 75.3556 136.095 75.2424 136.379 75.2424C136.664 75.2424 136.937 75.3556 137.139 75.557C137.34 75.7584 137.453 76.0315 137.453 76.3163V140.286C137.453 140.571 137.34 140.844 137.139 141.045C136.937 141.247 136.664 141.36 136.379 141.36V141.36Z" fill="#904D24"/>
<path d="M282.07 187.218H282.054L181.601 185.803C181.317 185.799 181.045 185.682 180.847 185.477C180.648 185.273 180.539 184.999 180.543 184.714C180.551 184.43 180.669 184.161 180.873 183.963C181.076 183.766 181.348 183.655 181.632 183.655L282.084 185.07C282.368 185.074 282.638 185.19 282.837 185.393C283.035 185.595 283.145 185.868 283.144 186.151C283.142 186.435 283.028 186.706 282.826 186.906C282.625 187.106 282.353 187.218 282.07 187.218V187.218Z" fill="#904D24"/>
<path d="M265.764 216.624H191.15C189.888 216.624 188.865 217.647 188.865 218.909V225.149C188.865 226.41 189.888 227.433 191.15 227.433H265.764C267.026 227.433 268.049 226.41 268.049 225.149V218.909C268.049 217.647 267.026 216.624 265.764 216.624Z" fill="#DC8758"/>
<path d="M27.688 240.256C30.0997 242.13 34.3487 246.58 34.4633 249.918C34.4633 249.918 42.2722 241.427 40.0521 234.166C38.7369 231.452 36.5549 229.254 33.8509 227.92C33.8509 227.92 36.913 226.202 40.1284 230.418C40.1284 230.418 38.9802 219.019 23.0949 223.157C23.0949 223.157 16.8937 210.508 4.60662 222.454C4.60662 222.454 12.8746 221.4 11.267 223.977C8.27381 224.818 5.47237 226.232 3.01795 228.141C2.19472 228.87 1.52523 229.756 1.04869 230.747C0.572156 231.738 0.298149 232.814 0.242722 233.912C0.0514621 236.996 -0.241978 243.099 0.357722 243.184C1.16141 243.301 6.44394 238.499 10.0038 238.851C13.5637 239.202 1.85046 249.742 1.85046 249.742C1.85046 249.742 4.26215 258.877 5.29573 258.76C6.329 258.643 10.0805 256.028 8.54911 258.76L5.90811 260.868L9.35311 265.631L18.004 261.805C18.004 261.805 14.1762 251.343 17.6978 254.193C17.6978 254.193 20.377 257.745 20.4153 260.4C20.4153 260.4 31.9943 255.364 30.8462 251.909C29.596 248.703 28.134 245.584 26.4698 242.572C26.1907 242.063 26.0274 241.499 25.9913 240.919C25.953 240.041 26.1825 239.085 27.688 240.256ZM26.2654 228.128C27.3501 227.38 30.0169 227.861 31.0184 230.301C32.0903 232.91 32.0454 235.818 30.9611 236.567C29.8764 237.315 26.795 236.339 26.0231 233.814C25.1683 231.004 25.181 228.876 26.2654 228.128V228.128Z" fill="#8B9D36"/>
<path d="M23.0948 223.157C21.8599 224.562 20.7183 226.046 19.6773 227.6C18.693 229.18 17.8811 230.862 17.2554 232.615C16.6346 234.373 16.1022 236.162 15.6602 237.973C15.1982 239.789 14.7569 241.603 14.389 243.435C13.9991 245.262 13.6585 247.101 13.3796 248.947C13.0923 250.793 12.9271 252.651 12.7002 254.518C12.2601 258.268 11.1414 261.908 9.3988 265.258C10.1416 263.54 10.7546 261.769 11.2325 259.96C11.7282 258.163 12.0546 256.323 12.2074 254.465C12.483 250.715 13.0013 246.987 13.759 243.303C14.1484 241.463 14.6125 239.638 15.0937 237.826C15.547 235.996 16.1151 234.197 16.7947 232.438C17.4845 230.677 18.3634 228.997 19.4162 227.426C20.5326 225.912 21.7623 224.485 23.0948 223.157V223.157Z" fill="#5E7C24"/>
<path d="M18.5854 229.108C17.3222 229.375 16.0799 229.732 14.8684 230.179C13.6604 230.618 12.4663 231.094 11.3074 231.651C8.95727 232.7 6.72814 233.991 4.45343 235.259C4.95008 234.838 5.46851 234.444 5.98267 234.042C6.52094 233.677 7.05097 233.295 7.60199 232.946C8.71008 232.253 9.85763 231.625 11.0388 231.066C12.2325 230.528 13.4623 230.075 14.7192 229.708C15.975 229.335 17.2755 229.133 18.5854 229.108V229.108Z" fill="#5E7C24"/>
<path d="M13.3518 247.221C12.4622 247.911 11.536 248.476 10.6316 249.065C10.1784 249.356 9.7357 249.656 9.30365 249.966C8.85796 250.262 8.48276 250.652 8.20465 251.109C8.26569 250.527 8.53716 249.988 8.96802 249.592C9.36559 249.189 9.80618 248.831 10.2819 248.524C11.22 247.912 12.2595 247.471 13.3518 247.221V247.221Z" fill="#5E7C24"/>
<path d="M15.1254 238.879C16.1738 239.861 17.1517 240.916 18.0517 242.035C18.9585 243.153 19.7993 244.322 20.57 245.538C21.3365 246.763 21.9943 248.053 22.5358 249.393C23.0946 250.73 23.4009 252.159 23.4393 253.607C23.16 252.215 22.7032 250.864 22.0803 249.588C21.4813 248.305 20.7941 247.066 20.0237 245.878C19.3017 244.657 18.4791 243.497 17.659 242.334C16.8361 241.172 15.9864 240.026 15.1254 238.879Z" fill="#5E7C24"/>
<path d="M4.52997 275.469L7.74532 278.436C7.74532 278.436 10.8841 275.118 11.2286 277.421C11.2286 277.421 10.731 279.724 10.1185 279.92C10.1185 279.92 17.8124 286.107 19.3627 281.013C19.9859 278.734 20.7726 276.503 21.7168 274.337C21.7168 274.337 23.4393 275.274 21.9464 282.652C21.9464 282.652 27.9008 280.902 30.1119 277.692C30.3659 277.314 30.5014 276.868 30.5009 276.412C30.5222 274.576 30.7641 269.411 32.8557 271.35C32.8557 271.35 34.0615 271.936 33.1428 275.859C33.1428 275.859 37.9886 270.396 35.6869 267.039C35.232 266.41 34.5733 265.958 33.8227 265.76C33.0721 265.561 32.2761 265.63 31.5701 265.952C30.2244 266.537 27.7275 267.612 23.0948 269.594C17.1306 272.2 10.9078 274.17 4.52997 275.469V275.469Z" fill="#8B9D36"/>
<path d="M15.1254 279.998C15.4233 278.31 15.9561 276.672 16.7083 275.132C17.0794 274.35 17.5353 273.611 18.0677 272.929C18.339 272.582 18.6528 272.271 19.0016 272.002C19.3478 271.722 19.7792 271.568 20.2249 271.565C19.4647 271.895 18.8452 272.482 18.4755 273.223C18.0388 273.931 17.6419 274.663 17.2867 275.415C16.5475 276.917 15.8892 278.466 15.1254 279.998Z" fill="#5E7C24"/>
<path d="M25.5828 277.577C25.495 276.066 25.6324 274.549 25.9905 273.078C26.169 272.336 26.4208 271.613 26.7422 270.92C27.0378 270.196 27.5749 269.596 28.2623 269.223C27.7652 269.76 27.4033 270.408 27.2063 271.113C26.9819 271.808 26.7891 272.514 26.6163 273.23C26.2677 274.664 25.9784 276.116 25.5828 277.577Z" fill="#5E7C24"/>
<path d="M79.0954 224.39C79.0954 224.39 71.3633 225.499 78.2533 230.965C78.2533 230.965 80.0141 232.448 85.7558 234.166C85.7558 234.166 89.354 218.517 79.0954 224.39Z" fill="#5E7C24"/>
<path d="M85.7558 234.166C85.6126 233.653 85.5188 233.14 85.39 232.636C85.229 232.139 85.1127 231.634 84.9366 231.15C84.6053 230.183 84.1719 229.253 83.6437 228.377C83.1055 227.515 82.4493 226.732 81.6942 226.051C80.9271 225.355 80.0486 224.794 79.0954 224.39C80.1567 224.567 81.1579 225.003 82.0102 225.66C82.8765 226.312 83.6155 227.118 84.1905 228.037C84.7454 228.961 85.1588 229.962 85.4168 231.008C85.5572 231.523 85.61 232.058 85.6988 232.579C85.7249 233.111 85.7571 233.639 85.7558 234.166Z" fill="#50661A"/>
<path d="M69.2825 192.774C69.2825 192.774 77.8548 187.313 80.4223 199.439C80.4223 199.439 75.9736 195.61 75.9147 197.825C77.3557 199.513 78.4521 201.466 79.1417 203.575C79.5413 205.147 79.3192 206.812 78.5216 208.223C77.4319 210.207 75.2304 214.102 74.8435 213.925C74.3254 213.689 73.0915 208.683 70.8625 207.534C68.6334 206.384 71.411 217.419 71.411 217.419C71.411 217.419 66.4347 222.157 65.8729 221.688C65.3111 221.218 64.1246 218.157 63.9602 220.439L64.6917 222.76L60.8114 224.39L57.2176 218.695C57.2176 218.695 63.5433 213.677 60.3633 214.092C60.3633 214.092 57.4045 215.266 56.3478 216.897C56.3478 216.897 51.5044 209.327 53.5253 207.626C55.4993 206.126 57.5685 204.756 59.7197 203.525C60.1536 203.278 60.5166 202.924 60.7737 202.496C61.0587 202.005 61.1143 201.482 59.9213 201.613C57.7739 201.848 53.5429 202.976 52.175 205.002C52.175 205.002 50.8936 196.737 55.0274 193.088C56.8282 191.921 58.9693 191.396 61.1054 191.596C61.1054 191.596 59.9748 189.355 56.4425 190.734C56.4424 190.734 61.5584 184.107 69.2825 192.774Z" fill="#5E7C24"/>
<path d="M73.1241 206.35C72.4245 204.645 71.7681 202.955 70.9701 201.344C70.5783 200.545 70.1141 199.783 69.5831 199.069C69.0844 198.324 68.321 197.796 67.4477 197.593C67.926 197.578 68.4014 197.673 68.8371 197.871C69.2727 198.069 69.6569 198.365 69.9598 198.736C70.5959 199.43 71.13 200.211 71.5458 201.055C72.3644 202.72 72.8978 204.51 73.1241 206.35V206.35Z" fill="#50661A"/>
<path d="M55.5162 210.43C55.9532 209.484 56.5034 208.594 57.1548 207.78C57.798 206.947 58.5453 206.201 59.3784 205.558C60.2156 204.895 61.1744 204.403 62.2007 204.109C63.2296 203.836 64.3161 203.871 65.3253 204.21C64.3181 204.124 63.304 204.253 62.3506 204.589C61.4206 204.949 60.5505 205.449 59.7697 206.069C58.9682 206.684 58.2201 207.366 57.5336 208.108C56.8397 208.85 56.1576 209.616 55.5162 210.43Z" fill="#50661A"/>
<path d="M63.5546 193.878C63.8704 193.456 64.2671 193.101 64.7215 192.834C65.176 192.567 65.679 192.393 66.2013 192.323C66.7256 192.241 67.2582 192.227 67.786 192.28C68.312 192.34 68.8316 192.447 69.3385 192.6L69.5271 192.653L69.4501 192.847C68.4486 195.377 67.5978 197.975 66.7576 200.567C65.9354 203.168 65.1947 205.794 64.4695 208.423C63.7723 211.06 63.1196 213.71 62.5116 216.371C61.9 219.032 61.3619 221.71 60.8113 224.39C61.1478 221.676 61.552 218.967 62.0819 216.281C62.5638 213.586 63.2181 210.925 63.8819 208.268C64.5516 205.612 65.3469 202.989 66.2031 200.388C67.0541 197.783 68.0076 195.216 69.1148 192.701L69.2262 192.948L68.4946 192.73C68.2457 192.683 67.9982 192.621 67.7479 192.579C67.2461 192.498 66.7359 192.482 66.2299 192.53C65.1975 192.617 64.2386 193.1 63.5546 193.878V193.878Z" fill="#50661A"/>
<path d="M66.2048 217.321C65.9556 216.386 65.6116 215.479 65.1779 214.614C64.9755 214.225 64.672 213.898 64.2994 213.667C63.8688 213.475 63.3987 213.388 62.9278 213.412C63.1613 213.274 63.4202 213.184 63.689 213.149C63.9579 213.113 64.2312 213.131 64.4928 213.203C65.025 213.403 65.4664 213.789 65.7343 214.29C66.2376 215.215 66.4039 216.287 66.2048 217.321V217.321Z" fill="#50661A"/>
<path d="M37.6022 279.997C37.6022 279.997 36.0782 274.737 32.2097 277.711C30.8947 278.756 29.954 280.199 29.5289 281.824C28.8312 284.342 28.2282 288.904 29.9466 295.379C29.9466 295.379 33.9068 289.9 36.8366 287.961C40.1407 285.775 42.2721 280.778 37.6022 279.997Z" fill="#C4CE6E"/>
<path d="M37.6022 279.998C37.0204 280.427 36.5128 280.949 36.0997 281.543C35.6623 282.115 35.2663 282.717 34.9148 283.345C34.1986 284.597 33.5617 285.892 33.0079 287.224C32.4235 288.546 31.9197 289.904 31.4194 291.266L29.9466 295.379C30.0723 294.659 30.2388 293.948 30.3842 293.231C30.5523 292.52 30.7615 291.819 30.9486 291.111C31.3553 289.705 31.8701 288.332 32.4166 286.97C33.0041 285.62 33.6998 284.32 34.4968 283.083C35.2562 281.81 36.3242 280.749 37.6022 279.998V279.998Z" fill="#8B9D36"/>
<path d="M43.1855 206.923C43.1855 206.923 43.3146 201.439 38.7389 203.062C37.1736 203.646 35.8431 204.727 34.9517 206.14C33.5315 208.319 31.5873 212.473 31.2787 219.174C31.2787 219.174 36.694 215.195 40.0652 214.265C43.867 213.216 47.3965 209.125 43.1855 206.923Z" fill="#8B9D36"/>
<path d="M43.1855 206.923C42.5028 207.15 41.8624 207.488 41.2902 207.925C40.7019 208.332 40.1438 208.782 39.6202 209.27C38.5621 210.238 37.5664 211.273 36.6393 212.367C35.6862 213.444 34.799 214.579 33.9142 215.719L31.2787 219.174C31.6143 218.529 31.9858 217.905 32.3394 217.268C32.7126 216.645 33.122 216.044 33.5125 215.429C34.3337 214.224 35.215 213.062 36.1532 211.946C37.118 210.844 38.1712 209.823 39.3022 208.892C40.4082 207.917 41.7447 207.239 43.1855 206.923Z" fill="#5E7C24"/>
<path d="M77.7201 279.997C77.7201 279.997 79.2441 274.737 83.1125 277.711C84.4275 278.756 85.3682 280.199 85.7934 281.824C86.4911 284.342 87.0941 288.904 85.3757 295.379C85.3757 295.379 81.4155 289.9 78.4857 287.961C75.1815 285.775 73.0502 280.778 77.7201 279.997Z" fill="#8B9D36"/>
<path d="M77.7201 279.998C78.9981 280.749 80.0661 281.81 80.8255 283.083C81.6224 284.32 82.3181 285.62 82.9056 286.97C83.4637 288.325 83.9537 289.707 84.3736 291.111C84.5607 291.819 84.77 292.52 84.9381 293.231C85.0834 293.948 85.2499 294.659 85.3757 295.379L83.9028 291.266C83.4025 289.904 82.8987 288.546 82.3143 287.224C81.7605 285.892 81.1236 284.597 80.4074 283.345C80.0559 282.717 79.6599 282.115 79.2225 281.543C78.8094 280.95 78.3019 280.427 77.7201 279.998V279.998Z" fill="#5E7C24"/>
<path d="M79.0954 224.39C79.0954 224.39 59.834 207.932 54.8425 304.085" stroke="#50661A" stroke-width="0.64428" stroke-miterlimit="10"/>
<path d="M60.8114 224.39C60.8114 224.39 51.2291 287.805 56.9708 304.084" stroke="#50661A" stroke-width="0.64428" stroke-miterlimit="10"/>
<path d="M53.3176 304.084C53.3176 304.084 46.1965 275.507 37.6021 279.997" stroke="#50661A" stroke-width="0.64428" stroke-miterlimit="10"/>
<path d="M54.341 295.563C54.341 295.563 60.5472 189.39 43.1855 206.923" stroke="#50661A" stroke-width="0.64428" stroke-miterlimit="10"/>
<path d="M62.0046 304.084C62.0046 304.084 69.1257 275.507 77.7201 279.997" stroke="#50661A" stroke-width="0.64428" stroke-miterlimit="10"/>
<path d="M35.1464 266.44C35.1464 266.44 48.6262 263.133 55.9756 303.421" stroke="#50661A" stroke-width="0.64428" stroke-miterlimit="10"/>
<path d="M39.5869 241.476C39.5869 241.476 43.4923 244.082 58.2699 303.421" stroke="#50661A" stroke-width="0.64428" stroke-miterlimit="10"/>
<path d="M76.4998 254.939C76.4998 254.939 61.9036 278.045 60.5473 304.084" stroke="#50661A" stroke-width="0.64428" stroke-miterlimit="10"/>
<path d="M37.6787 297.264V302.611C37.6739 303.102 37.8645 303.575 38.2085 303.926C38.5525 304.277 39.0217 304.477 39.5131 304.482H76.2658C76.7572 304.477 77.2264 304.277 77.5704 303.926C77.9144 303.575 78.105 303.102 78.1002 302.611V297.684C78.1049 297.196 77.9171 296.726 77.5775 296.376C77.238 296.025 76.774 295.823 76.2864 295.813L39.5336 295.394C39.2886 295.393 39.0459 295.441 38.8197 295.536C38.5934 295.63 38.3881 295.768 38.2156 295.942C38.0431 296.116 37.9068 296.322 37.8146 296.549C37.7224 296.776 37.6762 297.019 37.6787 297.264V297.264Z" fill="#9857BD"/>
<path d="M39.433 304.481L40.74 332.075H74.174L76.346 304.481H39.433Z" fill="#CB97E7"/>
<path d="M70.4829 253.366C70.534 250.848 75.7399 255.416 75.7399 255.416C72.6391 241.499 62.7317 247.302 62.7317 247.302C53.6724 237.074 47.7905 244.368 47.7905 244.368C51.8797 242.969 53.2133 245.572 53.2133 245.572C50.772 245.228 48.2866 245.724 46.1635 246.977C41.3981 250.933 42.9613 260.393 42.9613 260.393C44.5306 258.155 49.4428 257.075 51.9308 256.906C53.4939 256.802 53.2195 257.57 52.7986 258.155C52.5162 258.535 52.1521 258.846 51.7333 259.066C49.2454 260.363 46.8476 261.826 44.5562 263.445C42.2211 265.28 47.9245 274.122 47.9245 274.122C49.1366 272.32 52.5625 271.123 52.5625 271.123C56.2563 270.804 48.9515 276.211 48.9515 276.211L53.1811 282.86L57.679 281.188L56.8049 278.514C56.9771 275.924 58.3808 279.464 59.0378 280.023C59.6948 280.59 65.4364 275.436 65.4364 275.436C65.4364 275.436 62.1064 262.749 64.7028 264.167C67.3058 265.579 68.7857 271.331 69.3919 271.624C69.8449 271.845 72.365 267.518 73.6154 265.312C74.0683 264.525 74.3612 263.655 74.4772 262.754C74.5933 261.853 74.5302 260.938 74.2916 260.062C73.4562 257.609 72.1639 255.338 70.4829 253.366V253.366ZM55.9564 253.262C54.2976 254.635 51.7457 253.874 51.3377 252.852C50.9227 251.837 52.1924 249.814 54.0936 248.526C55.8735 247.315 57.9214 248.22 58.3297 249.241C58.7444 250.256 57.8002 251.727 55.9564 253.262V253.262Z" fill="#5E7C24"/>
<path d="M62.7301 247.302C63.0603 248.819 63.2762 250.358 63.376 251.907C63.4067 253.469 63.2679 255.03 62.962 256.561C62.6504 258.086 62.24 259.59 61.7333 261.062C61.2548 262.532 60.7593 264.005 60.2052 265.455C59.0759 268.345 57.7566 271.157 56.2561 273.873C55.5237 275.222 54.9198 276.637 54.4525 278.1C53.965 279.563 53.5857 281.061 53.3177 282.581C53.5936 279.475 54.44 276.447 55.8142 273.649C57.239 270.915 58.5048 268.102 59.6051 265.223C60.1726 263.792 60.6815 262.34 61.1779 260.877C61.6781 259.418 62.1275 257.95 62.4792 256.46C62.8348 254.969 63.0302 253.444 63.062 251.912C63.0473 250.37 62.9364 248.831 62.7301 247.302Z" fill="#50661A"/>
<path d="M63.1667 253.486C64.0739 254.097 64.8913 254.831 65.5951 255.668C66.3076 256.497 66.9534 257.38 67.5265 258.31C68.0958 259.24 68.6011 260.208 69.0387 261.206C69.4765 262.202 69.8387 263.229 70.122 264.279L68.5874 261.428C68.0648 260.49 67.5467 259.554 66.9784 258.648C66.42 257.738 65.8284 256.848 65.2036 255.981C64.5788 255.106 63.8984 254.273 63.1667 253.486V253.486Z" fill="#50661A"/>
<path d="M58.6649 268.357C59.3369 269.01 59.8733 269.79 60.2433 270.651C60.4335 271.084 60.5729 271.539 60.6587 272.004C60.7724 272.484 60.7022 272.989 60.4619 273.419C60.4529 272.975 60.3546 272.538 60.1728 272.133C60.0062 271.725 59.8348 271.317 59.6533 270.909C59.2691 270.08 58.9389 269.228 58.6649 268.357V268.357Z" fill="#50661A"/>
<path d="M61.1756 261.804L57.9056 263.041C56.8259 263.465 55.7509 263.895 54.705 264.382C53.6513 264.847 52.6267 265.374 51.6368 265.962C50.636 266.542 49.7111 267.244 48.8836 268.052C49.5381 267.063 50.3794 266.21 51.3604 265.542C52.3259 264.86 53.3571 264.274 54.4387 263.796C56.5808 262.822 58.8483 262.151 61.1756 261.804Z" fill="#50661A"/>
<path d="M93.5843 237.634C93.5843 237.634 101.052 226.478 110.392 239.652C110.392 239.652 103.078 237.445 104.15 240.135C106.751 241.386 109.076 243.143 110.99 245.302C112.284 246.985 112.877 249.103 112.645 251.213C112.361 254.178 111.73 260.035 111.174 260.031C110.431 260.025 106.366 254.68 103.098 254.497C99.8297 254.315 108.858 266.066 108.858 266.066C108.858 266.066 105.332 274.423 104.416 274.161C103.499 273.899 100.495 270.863 101.476 273.689L103.551 276.082L99.7365 280.121L92.4845 275.216C92.4845 275.216 97.4859 265.799 93.8838 268.004C93.8838 268.004 90.9389 271.001 90.5129 273.526C90.5129 273.526 80.7936 267.042 82.3406 263.915C83.9326 261.061 85.7051 258.311 87.6473 255.682C88.0386 255.158 88.2931 254.544 88.3878 253.896C88.4848 253.143 88.2935 252.458 86.9124 253.266C84.4572 254.702 79.962 258.326 79.366 261.492C79.366 261.492 73.5628 252.262 76.6396 245.663C78.194 243.302 80.4889 241.525 83.1635 240.61C83.1635 240.61 80.65 238.528 77.1231 242.079C77.1231 242.079 79.8417 231.38 93.5843 237.634Z" fill="#C4CE6E"/>
<path d="M93.5843 237.634C94.8897 240.994 95.9688 244.438 96.8144 247.942C97.6905 251.439 98.3685 254.986 98.8995 258.552C99.4157 262.122 99.7499 265.716 99.9009 269.32C100.056 272.921 100.001 276.527 99.7364 280.121C99.7081 276.521 99.69 272.928 99.406 269.347C99.1791 265.765 98.7979 262.197 98.2627 258.645C97.7874 255.088 97.1034 251.561 96.3341 248.055C95.5604 244.549 94.6679 241.066 93.5843 237.634Z" fill="#8B9D36"/>
<path d="M95.4483 243.572C94.844 244.324 94.3041 245.125 93.8343 245.967C93.3652 246.8 92.9423 247.657 92.5673 248.536C92.191 249.414 91.8635 250.314 91.5602 251.226C91.26 252.14 90.9915 253.068 90.7059 254.006C90.7357 253.025 90.8595 252.05 91.0755 251.092C91.2916 250.131 91.5927 249.191 91.9754 248.283C92.3657 247.375 92.8471 246.509 93.4122 245.698C93.967 244.88 94.6553 244.162 95.4483 243.572V243.572Z" fill="#8B9D36"/>
<path d="M98.5556 258.348C99.5447 258.571 100.477 258.995 101.295 259.594C102.113 260.193 102.799 260.954 103.309 261.83C103.651 262.41 103.893 263.042 104.027 263.702C103.343 262.611 102.533 261.604 101.613 260.702C100.68 259.812 99.6551 259.023 98.5556 258.348V258.348Z" fill="#8B9D36"/>
<path d="M413.276 308.232L414.457 320.015L393.995 330.012H425.416V308.232H413.276Z" fill="#F9977A"/>
<path d="M379.554 308.232L380.735 320.015L360.273 330.012H391.694V308.232H379.554Z" fill="#F9977A"/>
<path d="M411.63 314.279H425.47C425.841 314.279 426.208 314.206 426.55 314.064C426.892 313.922 427.203 313.714 427.465 313.452C427.727 313.19 427.935 312.879 428.077 312.537C428.219 312.194 428.292 311.827 428.292 311.457V262.242C428.292 252.626 427.21 243.039 425.067 233.664C424.683 231.983 424.53 230.258 424.612 228.536C425.216 215.863 427.469 160.286 421.151 150.177L380.735 147.193L408.849 311.932C408.961 312.588 409.301 313.184 409.81 313.613C410.319 314.043 410.964 314.279 411.63 314.279V314.279Z" fill="#C67A56"/>
<path d="M367.575 145.098C367.575 145.098 365.451 179.495 365.451 187.582V235.301C365.451 237.266 365.547 239.227 365.74 241.185L372.817 312.943C372.886 313.64 373.211 314.287 373.73 314.757C374.249 315.228 374.924 315.488 375.625 315.488H391.933C392.32 315.488 392.704 315.408 393.06 315.253C393.415 315.098 393.735 314.872 393.999 314.588C394.263 314.304 394.466 313.969 394.594 313.603C394.723 313.237 394.775 312.848 394.747 312.462L390.341 251.878C389.936 246.311 390.31 240.715 391.453 235.252L409.249 150.177L367.575 145.098Z" fill="#C67A56"/>
<path d="M336.256 90.8043C336.256 90.8043 336.108 86.9226 330.139 80.7767C324.169 74.6309 318.816 70.4305 321.924 75.6092L324.358 79.5162C324.358 79.5162 317.936 77.0257 314.24 75.2069C313.267 74.709 312.16 74.5367 311.082 74.7152C310.004 74.8937 309.012 75.4137 308.252 76.1985C306.859 77.7006 306.901 79.3425 310.742 82.2562C314.285 85.0764 318.202 87.3913 322.382 89.1346C322.981 89.3654 323.488 89.7884 323.821 90.3376L328.115 93.8323L336.256 90.8043Z" fill="#F9977A"/>
<path d="M328.115 81.3301C327.431 81.1707 326.769 80.9299 326.143 80.6128C325.512 80.3091 324.914 79.9416 324.358 79.5161C324.713 79.5517 325.063 79.6287 325.4 79.7456C325.734 79.854 326.059 79.9865 326.374 80.1418C327.012 80.446 327.599 80.8468 328.115 81.3301V81.3301Z" fill="#DD765E"/>
<path d="M319.243 80.1409C318.428 79.8665 317.631 79.544 316.854 79.175C316.072 78.8198 315.314 78.4155 314.568 77.9883C313.821 77.56 313.1 77.0878 312.409 76.5742C311.708 76.0695 311.064 75.4897 310.49 74.845C311.899 75.8281 313.356 76.6814 314.831 77.5344C316.299 78.3965 317.787 79.2231 319.243 80.1409Z" fill="#DD765E"/>
<path d="M317.649 82.1189C316.741 81.8662 315.852 81.5526 314.987 81.1802C314.116 80.8165 313.268 80.4014 312.447 79.937C311.618 79.4773 310.831 78.9443 310.097 78.3445C309.335 77.7696 308.706 77.0378 308.252 76.1985C308.857 76.904 309.56 77.5185 310.341 78.0227C311.107 78.5398 311.892 79.0322 312.706 79.4807C314.319 80.4041 315.987 81.2351 317.649 82.1189Z" fill="#DD765E"/>
<path d="M315.725 83.6023C314.96 83.4109 314.211 83.1604 313.485 82.8533C312.756 82.554 312.044 82.2122 311.355 81.8298C309.958 81.0835 308.698 80.106 307.627 78.939C308.288 79.3726 308.932 79.8042 309.596 80.2068C310.267 80.5984 310.929 80.9998 311.611 81.3716L315.725 83.6023Z" fill="#DD765E"/>
<path d="M382.828 71.0911C382.828 71.0911 379.594 72.5368 377.087 73.822C373.613 75.6034 368.217 81.8633 361.902 97.4983L357.706 107.888C357.706 107.888 345.111 93.1849 334.214 83.8598L323.458 92.5869L348.352 121.261C349.962 123.564 352.101 125.448 354.589 126.754C360.273 129.659 366.076 128.701 369.263 122.794C374.246 113.554 380.172 99.4861 380.738 95.5662L382.828 71.0911Z" fill="#FFBA55"/>
<path d="M357.746 108.074C357.574 109.717 357.297 111.263 357.233 112.811C357.179 113.574 357.199 114.341 357.292 115.1C357.396 115.877 357.622 116.633 357.961 117.34C357.277 116.822 356.776 116.099 356.532 115.277C356.279 114.463 356.178 113.61 356.235 112.76C356.28 111.927 356.433 111.104 356.69 110.31C356.928 109.516 357.284 108.762 357.746 108.074V108.074Z" fill="#E6952A"/>
<path d="M406.088 156.844C406.088 156.844 406.088 173.851 424.854 169.401L423.816 154.092L406.088 156.844Z" fill="#A3862B"/>
<path d="M357.12 331.084V331.012C357.12 330.461 357.272 329.921 357.561 329.452C357.85 328.982 358.264 328.603 358.756 328.355L379.994 317.651C380.202 317.546 380.44 317.518 380.666 317.571C380.893 317.624 381.094 317.755 381.233 317.941L385.385 323.466C385.532 323.662 385.747 323.797 385.988 323.844C386.228 323.891 386.478 323.847 386.688 323.721L391.561 320.797C391.711 320.707 391.883 320.658 392.058 320.656C392.234 320.654 392.407 320.698 392.56 320.785C392.712 320.871 392.839 320.997 392.928 321.148C393.016 321.3 393.063 321.472 393.063 321.648V331.084C393.063 331.347 392.958 331.599 392.772 331.785C392.586 331.971 392.334 332.075 392.071 332.075H358.111C357.848 332.075 357.596 331.971 357.41 331.785C357.224 331.599 357.12 331.347 357.12 331.084V331.084Z" fill="#5D1115"/>
<path d="M390.841 331.084V331.012C390.841 330.461 390.994 329.921 391.283 329.452C391.572 328.982 391.985 328.603 392.477 328.355L413.716 317.651C413.924 317.546 414.161 317.518 414.388 317.571C414.615 317.624 414.815 317.755 414.955 317.941L419.106 323.466C419.254 323.662 419.468 323.797 419.709 323.844C419.95 323.891 420.199 323.847 420.41 323.721L425.282 320.797C425.433 320.707 425.604 320.658 425.78 320.656C425.955 320.654 426.128 320.698 426.281 320.785C426.434 320.871 426.561 320.997 426.649 321.148C426.738 321.3 426.784 321.472 426.784 321.648V331.084C426.784 331.347 426.68 331.599 426.494 331.785C426.308 331.971 426.056 332.075 425.793 332.075H391.833C391.57 332.075 391.318 331.971 391.132 331.785C390.946 331.599 390.841 331.347 390.841 331.084V331.084Z" fill="#5D1115"/>
<path d="M395.678 30.9765C392.809 30.5397 389.878 30.7909 387.125 31.7096C385.835 32.167 381.116 33.84 378.816 38.3076C377.943 40.0042 377.745 42.0453 377.35 46.1275C377.103 48.6772 376.121 50.5034 376.123 53.6133C376.174 56.1329 376.587 58.6322 377.35 61.0341C378.494 64.7936 377.757 66.9294 378.328 67.6321C380.626 70.4643 385.554 67.8463 385.659 71.542C385.723 73.824 384.273 75.2685 386.178 77.3153C388.54 79.8535 397.513 78.893 400.81 77.1626C401.259 76.9267 407.853 73.3789 407.408 69.3427C407.17 67.1866 405.152 66.9635 403.742 63.7222C402.84 61.475 402.586 59.0197 403.009 56.6354C403.645 51.9173 406.022 51.3419 407.897 45.6387C408.405 44.2068 408.537 42.6683 408.281 41.1707C408.024 39.673 407.387 38.2664 406.43 37.0857C403.674 33.8514 399.868 31.689 395.678 30.9765V30.9765Z" fill="#F9977A"/>
<path d="M377.331 50.9173C377.86 50.9173 378.289 50.3839 378.289 49.726C378.289 49.068 377.86 48.5347 377.331 48.5347C376.802 48.5347 376.373 49.068 376.373 49.726C376.373 50.3839 376.802 50.9173 377.331 50.9173Z" fill="#0A0709"/>
<path d="M387.372 51.3204C387.901 51.3204 388.33 50.787 388.33 50.1291C388.33 49.4711 387.901 48.9377 387.372 48.9377C386.843 48.9377 386.414 49.4711 386.414 50.1291C386.414 50.787 386.843 51.3204 387.372 51.3204Z" fill="#0A0709"/>
<path d="M381.863 47.5239C381.99 47.524 382.114 47.4837 382.218 47.4088C382.321 47.3339 382.398 47.2283 382.437 47.107C382.477 46.9858 382.477 46.8551 382.438 46.7337C382.399 46.6123 382.323 46.5064 382.22 46.4311C381.198 45.6644 379.971 45.2197 378.696 45.1538C377.421 45.0879 376.154 45.4038 375.059 46.0611C374.926 46.1504 374.834 46.2889 374.803 46.4462C374.772 46.6035 374.804 46.7667 374.893 46.9C374.983 47.0333 375.121 47.1257 375.278 47.1568C375.436 47.188 375.599 47.1554 375.732 47.0661C376.617 46.5341 377.642 46.282 378.672 46.3429C379.703 46.4038 380.69 46.7749 381.506 47.4074C381.61 47.4832 381.734 47.524 381.863 47.5239Z" fill="#1E1D22"/>
<path d="M391.801 48.0167C391.928 48.0168 392.053 47.9765 392.156 47.9016C392.259 47.8267 392.336 47.7211 392.376 47.5999C392.415 47.4786 392.416 47.3479 392.376 47.2265C392.337 47.1051 392.261 46.9992 392.158 46.924C391.136 46.1573 389.91 45.7125 388.634 45.6465C387.359 45.5805 386.093 45.8963 384.998 46.5535C384.865 46.6427 384.772 46.7812 384.741 46.9386C384.71 47.0959 384.743 47.2591 384.832 47.3924C384.921 47.5257 385.06 47.618 385.217 47.6492C385.374 47.6804 385.538 47.6477 385.671 47.5585C386.555 47.0263 387.58 46.7741 388.611 46.8351C389.641 46.8961 390.629 47.2674 391.444 47.9002C391.548 47.9761 391.673 48.0169 391.801 48.0167V48.0167Z" fill="#1E1D22"/>
<path d="M383.982 154.89C384.863 154.89 385.578 154.175 385.578 153.294C385.578 152.412 384.863 151.698 383.982 151.698C383.1 151.698 382.386 152.412 382.386 153.294C382.386 154.175 383.1 154.89 383.982 154.89Z" fill="#5D1115"/>
<path d="M381.711 48.2424C381.961 49.2452 381.876 50.3021 381.47 51.2524C381.107 52.2097 380.611 53.1114 379.997 53.9311C379.684 54.3433 379.227 54.6516 379.258 55.0566C379.311 55.5108 379.543 55.9252 379.901 56.2087C380.302 56.4899 380.754 56.6891 381.232 56.7951C381.71 56.9011 382.205 56.9118 382.687 56.8264C382.193 56.9912 381.669 57.0428 381.153 56.9774C380.636 56.912 380.142 56.7312 379.705 56.4485C379.477 56.2897 379.286 56.0834 379.146 55.8438C379.005 55.6042 378.918 55.3369 378.891 55.0605C378.888 54.7619 378.999 54.4734 379.201 54.2537L379.685 53.6772C380.289 52.8926 380.794 52.0363 381.188 51.1279C381.625 50.2327 381.806 49.2341 381.711 48.2424V48.2424Z" fill="#DD765E"/>
<path d="M399.408 48.6453C399.775 48.6282 400.141 48.6915 400.481 48.831C400.821 48.9704 401.126 49.1825 401.375 49.4525C401.627 49.7139 401.845 50.0053 402.026 50.3201C402.2 50.6341 402.33 50.9707 402.412 51.3204C402.01 50.7624 401.569 50.234 401.092 49.7391C400.862 49.4974 400.605 49.2827 400.326 49.099C400.043 48.9052 399.734 48.7525 399.408 48.6453V48.6453Z" fill="#DD765E"/>
<path d="M400.186 53.6135C399.815 52.9158 399.685 52.1151 399.816 51.3357C399.947 50.5564 400.331 49.8421 400.91 49.3037C400.757 49.6621 400.587 49.9915 400.477 50.3442C400.35 50.6856 400.26 51.0401 400.211 51.4011C400.091 52.1331 400.083 52.8791 400.186 53.6135V53.6135Z" fill="#DD765E"/>
<path d="M367.135 127.007C366.761 123.458 366.655 119.886 366.817 116.322C366.912 112.75 367.36 109.196 368.154 105.711C368.078 109.285 367.95 112.815 367.815 116.362C367.66 119.906 367.509 123.45 367.135 127.007Z" fill="#E6952A"/>
<path d="M386.675 61.0364C386.675 61.0364 382.902 64.5554 379.529 61.0364Z" fill="#0A0709"/>
<path d="M390.465 49.9831C389.636 49.5691 388.746 49.2922 387.829 49.1633C387.379 49.0899 386.922 49.0747 386.469 49.1181C386.004 49.1565 385.543 49.2312 385.09 49.3415C385.499 49.0835 385.952 48.9036 386.426 48.811C386.906 48.7165 387.398 48.7008 387.883 48.7643C388.85 48.8903 389.753 49.3166 390.465 49.9831V49.9831Z" fill="#1E1D22"/>
<path d="M380.596 49.5801C379.768 49.166 378.878 48.8891 377.961 48.7603C377.511 48.6869 377.054 48.6717 376.601 48.7151C376.136 48.7535 375.675 48.8282 375.222 48.9385C375.63 48.6805 376.084 48.5006 376.558 48.408C377.038 48.3134 377.53 48.2976 378.015 48.3613C378.982 48.4873 379.885 48.9136 380.596 49.5801V49.5801Z" fill="#1E1D22"/>
<path d="M367.052 149.925C369.024 151.195 371.154 152.201 373.387 152.917C375.598 153.677 377.857 154.286 380.151 154.74C384.734 155.677 389.392 156.209 394.069 156.33C396.403 156.507 398.748 156.416 401.089 156.451C403.431 156.406 405.77 156.249 408.114 156.18C410.451 155.993 412.794 155.839 415.132 155.624C417.468 155.381 419.801 155.103 422.147 154.89C419.837 155.328 417.513 155.702 415.191 156.11C412.858 156.425 410.514 156.666 408.172 156.947C405.823 157.138 403.466 157.268 401.109 157.361C398.749 157.356 396.387 157.48 394.027 157.328C389.297 157.168 384.594 156.551 379.983 155.487C375.422 154.354 370.795 152.836 367.052 149.925Z" fill="#5D1115"/>
<path d="M382.222 155.576C383.392 161.235 384.455 166.913 385.501 172.594C386.549 178.274 387.508 183.97 388.517 189.657C389.445 195.358 390.416 201.051 391.305 206.759L392.618 215.323C393.019 218.184 393.455 221.039 393.826 223.905C393.231 221.077 392.7 218.238 392.134 215.405L390.546 206.887C389.501 201.207 388.538 195.512 387.532 189.824C386.606 184.123 385.632 178.43 384.746 172.722C383.858 167.015 382.986 161.304 382.222 155.576Z" fill="#5D1115"/>
<path d="M374.147 148.505C374.497 149.533 374.666 150.613 374.647 151.698C374.668 152.783 374.499 153.863 374.147 154.89C373.795 153.863 373.626 152.783 373.647 151.698C373.628 150.613 373.798 149.533 374.147 148.505Z" fill="#5D1115"/>
<path d="M398.542 151.108C399.031 152.254 399.344 153.466 399.471 154.706C399.64 155.94 399.618 157.193 399.408 158.421C398.917 157.276 398.604 156.063 398.479 154.823C398.313 153.589 398.334 152.336 398.542 151.108V151.108Z" fill="#5D1115"/>
<path d="M385.922 156.167C386.582 158.41 387.119 160.687 387.532 162.988C387.954 165.281 388.302 167.585 388.554 169.906L388.579 170.143L388.415 170.253C387.326 170.98 386.214 171.676 385.067 172.325C386.007 171.401 386.981 170.523 387.98 169.677L387.841 170.024C387.335 167.745 386.923 165.45 386.587 163.144C386.239 160.832 386.017 158.503 385.922 156.167V156.167Z" fill="#5D1115"/>
<path d="M422.147 193.007C422.106 194.698 421.895 196.381 421.518 198.031C421.159 199.692 420.649 201.317 419.992 202.885C419.339 204.467 418.484 205.959 417.45 207.324C416.415 208.689 415.094 209.812 413.579 210.614C414.829 209.526 415.918 208.266 416.814 206.872C417.691 205.481 418.446 204.017 419.072 202.496C419.715 200.97 420.281 199.413 420.766 197.831C421.253 196.242 421.734 194.641 422.147 193.007Z" fill="#5D1115"/>
<path d="M422.147 204.616C421.867 205.806 421.451 206.959 420.907 208.053C420.374 209.155 419.748 210.209 419.037 211.205C417.643 213.239 415.768 214.897 413.579 216.032C414.439 215.158 415.274 214.322 416.042 213.415C416.798 212.503 417.55 211.593 418.226 210.62C419.617 208.701 420.862 206.684 422.147 204.616Z" fill="#5D1115"/>
<path d="M385.63 250.908C385.589 252.599 385.378 254.282 385 255.932C384.642 257.593 384.132 259.218 383.475 260.786C382.822 262.368 381.967 263.86 380.933 265.225C379.898 266.59 378.577 267.713 377.062 268.515C378.312 267.427 379.401 266.167 380.297 264.772C381.174 263.382 381.929 261.918 382.554 260.397C383.198 258.871 383.763 257.314 384.249 255.731C384.736 254.143 385.216 252.542 385.63 250.908Z" fill="#5D1115"/>
<path d="M385.63 262.517C385.35 263.706 384.934 264.86 384.39 265.954C383.857 267.056 383.231 268.11 382.52 269.106C381.126 271.14 379.251 272.798 377.062 273.933C377.922 273.059 378.757 272.223 379.525 271.316C380.281 270.404 381.032 269.494 381.709 268.521C383.1 266.602 384.345 264.585 385.63 262.517Z" fill="#5D1115"/>
<path d="M402.741 169.965C402.508 171.927 402.489 173.909 402.686 175.875C402.788 177.768 403.525 179.571 404.778 180.994C406.068 182.304 408.065 182.601 409.968 182.485C411.932 182.292 413.87 181.888 415.748 181.279C413.976 182.264 412.047 182.934 410.047 183.261C409.011 183.417 407.957 183.395 406.928 183.197C405.859 182.98 404.872 182.465 404.082 181.712C402.66 180.127 401.885 178.066 401.911 175.937C401.841 173.913 402.121 171.893 402.741 169.965V169.965Z" fill="#5D1115"/>
<path d="M387.186 71.8515C387.186 71.8515 389.459 83.3572 405.588 66.4956L421.15 76.124C424.672 78.3642 427.498 81.5456 429.306 85.3082C435.457 98.3246 439.056 112.399 439.909 126.77C439.909 126.77 442.109 141.253 420.604 169.812C420.604 169.812 409.363 171.979 406.675 160.005L413.579 150.474C413.579 150.474 377.106 153.895 367.575 145.098C367.575 145.098 362.586 82.7473 383.704 70.3204L387.186 71.8515Z" fill="#FFBA55"/>
<path d="M414.25 98.1787C414.679 100.894 415.077 103.612 415.444 106.334C415.798 109.058 416.186 111.777 416.511 114.504L417.483 122.684C417.822 125.409 418.071 128.144 418.37 130.874L418.374 130.919L418.371 130.957C418.087 134.317 417.572 137.653 416.83 140.942C416.157 144.245 415.065 147.449 413.579 150.474C414.779 147.352 415.659 144.116 416.207 140.816C416.504 139.174 416.741 137.52 416.941 135.863C417.159 134.211 417.343 132.545 417.46 130.893L417.462 130.975C417.15 128.247 416.788 125.525 416.515 122.792L415.655 114.6C415.37 111.868 415.146 109.13 414.889 106.396C414.648 103.66 414.435 100.921 414.25 98.1787Z" fill="#E6952A"/>
<path d="M410.407 100.867C411.493 101.772 412.455 102.818 413.265 103.977C414.111 105.112 414.799 106.354 415.313 107.672C414.225 106.769 413.263 105.722 412.454 104.562C411.611 103.426 410.922 102.184 410.407 100.867V100.867Z" fill="#E6952A"/>
<path d="M417.916 130.924C419.031 130.913 420.019 131.027 421.01 131.067C421.503 131.095 421.987 131.09 422.482 131.085C422.974 131.057 423.462 131.003 424.025 130.924C423.657 131.359 423.172 131.681 422.629 131.852C422.09 132.017 421.527 132.089 420.964 132.066C420.412 132.034 419.868 131.924 419.347 131.739C418.821 131.564 418.335 131.287 417.916 130.924Z" fill="#E6952A"/>
<path d="M390.645 75.4893C389.65 78.4915 388.694 81.5037 387.851 84.5488C386.964 87.5801 386.146 90.6295 385.398 93.697C383.889 99.8262 382.571 106 381.583 112.229C380.575 118.454 379.913 124.729 379.6 131.027C379.547 134.176 379.399 137.332 379.606 140.481C379.596 143.645 380.076 146.768 380.334 149.925C379.217 143.682 378.713 137.344 378.831 131.003C379.028 124.662 379.618 118.339 380.597 112.071C381.672 105.822 382.983 99.6145 384.657 93.5037C386.299 87.387 388.299 81.3719 390.645 75.4893V75.4893Z" fill="#E6952A"/>
<path d="M383.704 70.3205C383.332 71.9892 382.994 73.6643 382.776 75.3511C382.489 76.9989 382.47 78.6822 382.719 80.3362C382.897 81.1348 383.359 81.6909 384.057 81.4934C384.809 81.2624 385.505 80.8784 386.102 80.3657C387.394 79.2896 388.594 78.1074 389.689 76.8315L390.424 76.0098L390.505 77.1284C390.567 78.2764 390.865 79.3993 391.381 80.4265C391.602 80.9103 391.941 81.3306 392.368 81.6483C392.794 81.966 393.294 82.1709 393.82 82.2439C394.955 82.2811 396.079 82.006 397.068 81.4487C398.129 80.9076 399.132 80.2593 400.061 79.5142C403.809 76.4226 407.271 73.0008 410.407 69.2898C408.956 71.2512 407.462 73.1887 405.838 75.02C404.223 76.8745 402.467 78.6012 400.586 80.1846C399.622 80.9794 398.58 81.6736 397.475 82.2563C396.336 82.9129 395.036 83.2387 393.722 83.197C393.034 83.1191 392.377 82.8663 391.815 82.4625C391.252 82.0587 390.803 81.5176 390.509 80.8906C389.937 79.7259 389.618 78.4539 389.57 77.1575L390.387 77.4543C389.236 78.7557 387.978 79.9581 386.625 81.0488C385.918 81.6456 385.077 82.0634 384.173 82.2668C383.906 82.3217 383.63 82.3082 383.369 82.2275C383.109 82.1468 382.873 82.0016 382.684 81.8054C382.355 81.4349 382.141 80.9772 382.066 80.4875C381.92 79.6139 381.895 78.7242 381.992 77.8437C382.067 76.9836 382.194 76.1288 382.373 75.2841C382.715 73.604 383.159 71.9463 383.704 70.3205V70.3205Z" fill="#E6952A"/>
<path d="M386.606 97.0782C387.17 97.0782 387.627 96.621 387.627 96.0569C387.627 95.4929 387.17 95.0356 386.606 95.0356C386.042 95.0356 385.585 95.4929 385.585 96.0569C385.585 96.621 386.042 97.0782 386.606 97.0782Z" fill="#5D1115"/>
<path d="M389.67 85.2206C390.234 85.2206 390.691 84.7633 390.691 84.1993C390.691 83.6352 390.234 83.178 389.67 83.178C389.106 83.178 388.649 83.6352 388.649 84.1993C388.649 84.7633 389.106 85.2206 389.67 85.2206Z" fill="#5D1115"/>
<path d="M384.06 110.981C384.624 110.981 385.082 110.523 385.082 109.959C385.082 109.395 384.624 108.938 384.06 108.938C383.496 108.938 383.039 109.395 383.039 109.959C383.039 110.523 383.496 110.981 384.06 110.981Z" fill="#5D1115"/>
<path d="M381.969 125.651C382.533 125.651 382.99 125.194 382.99 124.63C382.99 124.066 382.533 123.609 381.969 123.609C381.405 123.609 380.948 124.066 380.948 124.63C380.948 125.194 381.405 125.651 381.969 125.651Z" fill="#5D1115"/>
<path d="M381.328 141.715C381.892 141.715 382.349 141.258 382.349 140.694C382.349 140.13 381.892 139.673 381.328 139.673C380.764 139.673 380.307 140.13 380.307 140.694C380.307 141.258 380.764 141.715 381.328 141.715Z" fill="#5D1115"/>
<path d="M385.034 71.3629C385.034 71.3629 391.798 71.4882 395.664 66.1119C397.508 63.5489 397.513 58.3635 397.332 55.3471C397.25 53.9951 397.462 52.6414 397.956 51.3799C398.639 49.6368 399.478 47.2617 401.183 47.1036C402.439 46.9871 402.944 46.6554 403.397 47.8679C404.144 49.8737 402.845 52.0864 401.941 53.6276C400.646 55.8328 399.547 56.3143 399.527 57.84C399.512 59.0039 401.376 60.9404 402.148 61.0257C403.455 61.1699 404.045 57.2079 407.548 50.5996C409.76 46.4266 410.777 45.6438 411.033 43.0389C411.124 42.1139 411.501 38.2847 409.196 36.0576C408.127 35.0246 407.519 35.3393 402.871 33.3711C401.58 32.8591 400.319 32.2774 399.091 31.6285C395.389 29.6061 395.471 28.5658 393.305 27.9499C391.347 27.3936 391.231 28.2293 387.494 28.008C383.891 27.7947 383.571 26.9925 381.906 27.4675C379.014 28.2922 377.625 31.3811 377.252 32.2111C376.507 33.6478 376.124 35.2445 376.136 36.8627C376.295 38.5044 376.903 40.0706 377.893 41.3895C378.363 41.8681 380.268 39.1097 381.306 38.072C382.324 37.0553 383.481 37.4716 385.056 37.5696C386.593 37.6651 386.509 38.622 388.781 39.4622C389.591 39.7615 392.836 38.3079 393.883 40.1036C394.999 42.0169 395.866 42.2487 395.342 44.029C395.015 45.1413 395.218 46.5078 395.623 49.2409C395.913 51.2023 394.326 58.0533 394.326 58.0533C394.187 58.3376 393.993 58.5914 393.755 58.8002C393.517 59.0089 393.24 59.1685 392.94 59.2696C392.64 59.3707 392.323 59.4114 392.007 59.3893C391.691 59.3672 391.383 59.2827 391.1 59.1408C389.38 58.2556 387.603 57.4874 385.781 56.8415C384.692 56.4707 383.534 56.346 382.392 56.4767C381.249 56.6073 380.149 56.99 379.172 57.597C378.493 58.012 377.796 58.4768 377.243 58.8961C376.877 59.1748 376.584 59.5396 376.391 59.9582C376.199 60.3767 376.113 60.8363 376.14 61.2962C376.34 64.2366 377.561 71.4286 385.034 71.3629ZM378.607 61.1473C378.886 59.7467 380.975 59.2021 382.168 58.8925C383.112 58.5592 384.135 58.5229 385.101 58.7886C385.33 58.8595 387.406 59.5728 387.594 61.2458C387.783 62.9191 385.917 64.0856 385.624 64.2609C384.926 64.6805 384.132 64.9144 383.318 64.9402C382.504 64.9661 381.696 64.7831 380.973 64.4086C379.902 63.8549 378.335 62.4935 378.607 61.1473V61.1473Z" fill="#1E1D22"/>
<path d="M81.2066 83.6286H61.0392C60.774 83.6286 60.5196 83.5232 60.3321 83.3357C60.1445 83.1482 60.0392 82.8938 60.0392 82.6286V57.1526C60.0392 56.8874 60.1445 56.633 60.3321 56.4455C60.5196 56.2579 60.774 56.1526 61.0392 56.1526H88.9965C89.2617 56.1526 89.516 56.2579 89.7036 56.4455C89.8911 56.633 89.9965 56.8874 89.9965 57.1526V75.689L81.2066 83.6286Z" fill="#FFE3CB"/>
<path d="M89.996 75.72H81.207V83.628L89.996 75.72Z" fill="#FECA9C"/>
<path d="M79.0065 53.5798H70.0266C69.4743 53.5798 69.0266 54.0275 69.0266 54.5798V57.9798C69.0266 58.5321 69.4743 58.9798 70.0266 58.9798H79.0065C79.5588 58.9798 80.0065 58.5321 80.0065 57.9798V54.5798C80.0065 54.0275 79.5588 53.5798 79.0065 53.5798Z" fill="#FECA9C"/>
<path d="M82.0067 65.4995H67.9666V66.4995H82.0067V65.4995Z" fill="#FECA9C"/>
<path d="M82.0067 71.4995H67.9666V72.4995H82.0067V71.4995Z" fill="#FECA9C"/>
<path d="M27.688 240.256C30.0997 242.13 34.3487 246.58 34.4633 249.918C34.4633 249.918 42.2722 241.427 40.0521 234.166C38.7369 231.452 36.5549 229.254 33.8509 227.92C33.8509 227.92 36.913 226.202 40.1284 230.418C40.1284 230.418 38.9802 219.019 23.0949 223.157C23.0949 223.157 16.8937 210.508 4.60662 222.454C4.60662 222.454 12.8746 221.4 11.267 223.977C8.27381 224.818 5.47237 226.232 3.01795 228.141C2.19472 228.87 1.52523 229.756 1.04869 230.747C0.572156 231.738 0.298149 232.814 0.242722 233.912C0.0514621 236.996 -0.241978 243.099 0.357722 243.184C1.16141 243.301 6.44394 238.499 10.0038 238.851C13.5637 239.202 1.85046 249.742 1.85046 249.742C1.85046 249.742 4.26215 258.877 5.29573 258.76C6.329 258.643 10.0805 256.028 8.54911 258.76L5.90811 260.868L9.35311 265.631L18.004 261.805C18.004 261.805 14.1762 251.343 17.6978 254.193C17.6978 254.193 20.377 257.745 20.4153 260.4C20.4153 260.4 31.9943 255.364 30.8462 251.909C29.596 248.703 28.134 245.584 26.4698 242.572C26.1907 242.063 26.0274 241.499 25.9913 240.919C25.953 240.041 26.1825 239.085 27.688 240.256ZM26.2654 228.128C27.3501 227.38 30.0169 227.861 31.0184 230.301C32.0903 232.91 32.0454 235.818 30.9611 236.567C29.8764 237.315 26.795 236.339 26.0231 233.814C25.1683 231.004 25.181 228.876 26.2654 228.128V228.128Z" fill="#8B9D36"/>
<path d="M23.0948 223.157C21.8599 224.562 20.7183 226.046 19.6773 227.6C18.693 229.18 17.8811 230.862 17.2554 232.615C16.6346 234.373 16.1022 236.162 15.6602 237.973C15.1982 239.789 14.7569 241.603 14.389 243.435C13.9991 245.262 13.6585 247.101 13.3796 248.947C13.0923 250.793 12.9271 252.651 12.7002 254.518C12.2601 258.268 11.1414 261.908 9.3988 265.258C10.1416 263.54 10.7546 261.769 11.2325 259.96C11.7282 258.163 12.0546 256.323 12.2074 254.465C12.483 250.715 13.0013 246.987 13.759 243.303C14.1484 241.463 14.6125 239.638 15.0937 237.826C15.547 235.996 16.1151 234.197 16.7947 232.438C17.4845 230.677 18.3634 228.997 19.4162 227.426C20.5326 225.912 21.7623 224.485 23.0948 223.157V223.157Z" fill="#5E7C24"/>
<path d="M18.5854 229.108C17.3222 229.375 16.0799 229.732 14.8684 230.179C13.6604 230.618 12.4663 231.094 11.3074 231.651C8.95727 232.7 6.72814 233.991 4.45343 235.259C4.95008 234.838 5.46851 234.444 5.98267 234.042C6.52094 233.677 7.05097 233.295 7.60199 232.946C8.71008 232.253 9.85763 231.625 11.0388 231.066C12.2325 230.528 13.4623 230.075 14.7192 229.708C15.975 229.335 17.2755 229.133 18.5854 229.108V229.108Z" fill="#5E7C24"/>
<path d="M13.3518 247.221C12.4622 247.911 11.536 248.476 10.6316 249.065C10.1784 249.356 9.7357 249.656 9.30365 249.966C8.85796 250.262 8.48276 250.652 8.20465 251.109C8.26569 250.527 8.53716 249.988 8.96802 249.592C9.36559 249.189 9.80618 248.831 10.2819 248.524C11.22 247.912 12.2595 247.471 13.3518 247.221V247.221Z" fill="#5E7C24"/>
<path d="M15.1254 238.879C16.1738 239.861 17.1517 240.916 18.0517 242.035C18.9585 243.153 19.7993 244.322 20.57 245.538C21.3365 246.763 21.9943 248.053 22.5358 249.393C23.0946 250.73 23.4009 252.159 23.4393 253.607C23.16 252.215 22.7032 250.864 22.0803 249.588C21.4813 248.305 20.7941 247.066 20.0237 245.878C19.3017 244.657 18.4791 243.497 17.659 242.334C16.8361 241.172 15.9864 240.026 15.1254 238.879Z" fill="#5E7C24"/>
<path d="M4.52997 275.469L7.74532 278.436C7.74532 278.436 10.8841 275.118 11.2286 277.421C11.2286 277.421 10.731 279.724 10.1185 279.92C10.1185 279.92 17.8124 286.107 19.3627 281.013C19.9859 278.734 20.7726 276.503 21.7168 274.337C21.7168 274.337 23.4393 275.274 21.9464 282.652C21.9464 282.652 27.9008 280.902 30.1119 277.692C30.3659 277.314 30.5014 276.868 30.5009 276.412C30.5222 274.576 30.7641 269.411 32.8557 271.35C32.8557 271.35 34.0615 271.936 33.1428 275.859C33.1428 275.859 37.9886 270.396 35.6869 267.039C35.232 266.41 34.5733 265.958 33.8227 265.76C33.0721 265.561 32.2761 265.63 31.5701 265.952C30.2244 266.537 27.7275 267.612 23.0948 269.594C17.1306 272.2 10.9078 274.17 4.52997 275.469V275.469Z" fill="#8B9D36"/>
<path d="M15.1254 279.998C15.4233 278.31 15.9561 276.672 16.7083 275.132C17.0794 274.35 17.5353 273.611 18.0677 272.929C18.339 272.582 18.6528 272.271 19.0016 272.002C19.3478 271.722 19.7792 271.568 20.2249 271.565C19.4647 271.895 18.8452 272.482 18.4755 273.223C18.0388 273.931 17.6419 274.663 17.2867 275.415C16.5475 276.917 15.8892 278.466 15.1254 279.998Z" fill="#5E7C24"/>
<path d="M25.5828 277.577C25.495 276.066 25.6324 274.549 25.9905 273.078C26.169 272.336 26.4208 271.613 26.7422 270.92C27.0378 270.196 27.5749 269.596 28.2623 269.223C27.7652 269.76 27.4033 270.408 27.2063 271.113C26.9819 271.808 26.7891 272.514 26.6163 273.23C26.2677 274.664 25.9784 276.116 25.5828 277.577Z" fill="#5E7C24"/>
<path d="M79.0954 224.39C79.0954 224.39 71.3633 225.499 78.2533 230.965C78.2533 230.965 80.0141 232.448 85.7558 234.166C85.7558 234.166 89.354 218.517 79.0954 224.39Z" fill="#5E7C24"/>
<path d="M85.7558 234.166C85.6126 233.653 85.5188 233.14 85.39 232.636C85.229 232.139 85.1127 231.634 84.9366 231.15C84.6053 230.183 84.1719 229.253 83.6437 228.377C83.1055 227.515 82.4493 226.732 81.6942 226.051C80.9271 225.355 80.0486 224.794 79.0954 224.39C80.1567 224.567 81.1579 225.003 82.0102 225.66C82.8765 226.312 83.6155 227.118 84.1905 228.037C84.7454 228.961 85.1588 229.962 85.4168 231.008C85.5572 231.523 85.61 232.058 85.6988 232.579C85.7249 233.111 85.7571 233.639 85.7558 234.166Z" fill="#50661A"/>
<path d="M69.2825 192.774C69.2825 192.774 77.8548 187.313 80.4223 199.439C80.4223 199.439 75.9736 195.61 75.9147 197.825C77.3557 199.513 78.4521 201.466 79.1417 203.575C79.5413 205.147 79.3192 206.812 78.5216 208.223C77.4319 210.207 75.2304 214.102 74.8435 213.925C74.3254 213.689 73.0915 208.683 70.8625 207.534C68.6334 206.384 71.411 217.419 71.411 217.419C71.411 217.419 66.4347 222.157 65.8729 221.688C65.3111 221.218 64.1246 218.157 63.9602 220.439L64.6917 222.76L60.8114 224.39L57.2176 218.695C57.2176 218.695 63.5433 213.677 60.3633 214.092C60.3633 214.092 57.4045 215.266 56.3478 216.897C56.3478 216.897 51.5044 209.327 53.5253 207.626C55.4993 206.126 57.5685 204.756 59.7197 203.525C60.1536 203.278 60.5166 202.924 60.7737 202.496C61.0587 202.005 61.1143 201.482 59.9213 201.613C57.7739 201.848 53.5429 202.976 52.175 205.002C52.175 205.002 50.8936 196.737 55.0274 193.088C56.8282 191.921 58.9693 191.396 61.1054 191.596C61.1054 191.596 59.9748 189.355 56.4425 190.734C56.4424 190.734 61.5584 184.107 69.2825 192.774Z" fill="#5E7C24"/>
<path d="M73.1241 206.35C72.4245 204.645 71.7681 202.955 70.9701 201.344C70.5783 200.545 70.1141 199.783 69.5831 199.069C69.0844 198.324 68.321 197.796 67.4477 197.593C67.926 197.578 68.4014 197.673 68.8371 197.871C69.2727 198.069 69.6569 198.365 69.9598 198.736C70.5959 199.43 71.13 200.211 71.5458 201.055C72.3644 202.72 72.8978 204.51 73.1241 206.35V206.35Z" fill="#50661A"/>
<path d="M55.5162 210.43C55.9532 209.484 56.5034 208.594 57.1548 207.78C57.798 206.947 58.5453 206.201 59.3784 205.558C60.2156 204.895 61.1744 204.403 62.2007 204.109C63.2296 203.836 64.3161 203.871 65.3253 204.21C64.3181 204.124 63.304 204.253 62.3506 204.589C61.4206 204.949 60.5505 205.449 59.7697 206.069C58.9682 206.684 58.2201 207.366 57.5336 208.108C56.8397 208.85 56.1576 209.616 55.5162 210.43Z" fill="#50661A"/>
<path d="M63.5546 193.878C63.8704 193.456 64.2671 193.101 64.7215 192.834C65.176 192.567 65.679 192.393 66.2013 192.323C66.7256 192.241 67.2582 192.227 67.786 192.28C68.312 192.34 68.8316 192.447 69.3385 192.6L69.5271 192.653L69.4501 192.847C68.4486 195.377 67.5978 197.975 66.7576 200.567C65.9354 203.168 65.1947 205.794 64.4695 208.423C63.7723 211.06 63.1196 213.71 62.5116 216.371C61.9 219.032 61.3619 221.71 60.8113 224.39C61.1478 221.676 61.552 218.967 62.0819 216.281C62.5638 213.586 63.2181 210.925 63.8819 208.268C64.5516 205.612 65.3469 202.989 66.2031 200.388C67.0541 197.783 68.0076 195.216 69.1148 192.701L69.2262 192.948L68.4946 192.73C68.2457 192.683 67.9982 192.621 67.7479 192.579C67.2461 192.498 66.7359 192.482 66.2299 192.53C65.1975 192.617 64.2386 193.1 63.5546 193.878V193.878Z" fill="#50661A"/>
<path d="M66.2048 217.321C65.9556 216.386 65.6116 215.479 65.1779 214.614C64.9755 214.225 64.672 213.898 64.2994 213.667C63.8688 213.475 63.3987 213.388 62.9278 213.412C63.1613 213.274 63.4202 213.184 63.689 213.149C63.9579 213.113 64.2312 213.131 64.4928 213.203C65.025 213.403 65.4664 213.789 65.7343 214.29C66.2376 215.215 66.4039 216.287 66.2048 217.321V217.321Z" fill="#50661A"/>
<path d="M37.6022 279.997C37.6022 279.997 36.0782 274.737 32.2097 277.711C30.8947 278.756 29.954 280.199 29.5289 281.824C28.8312 284.342 28.2282 288.904 29.9466 295.379C29.9466 295.379 33.9068 289.9 36.8366 287.961C40.1407 285.775 42.2721 280.778 37.6022 279.997Z" fill="#C4CE6E"/>
<path d="M37.6022 279.998C37.0204 280.427 36.5128 280.949 36.0997 281.543C35.6623 282.115 35.2663 282.717 34.9148 283.345C34.1986 284.597 33.5617 285.892 33.0079 287.224C32.4235 288.546 31.9197 289.904 31.4194 291.266L29.9466 295.379C30.0723 294.659 30.2388 293.948 30.3842 293.231C30.5523 292.52 30.7615 291.819 30.9486 291.111C31.3553 289.705 31.8701 288.332 32.4166 286.97C33.0041 285.62 33.6998 284.32 34.4968 283.083C35.2562 281.81 36.3242 280.749 37.6022 279.998V279.998Z" fill="#8B9D36"/>
<path d="M43.1855 206.923C43.1855 206.923 43.3146 201.439 38.7389 203.062C37.1736 203.646 35.8431 204.727 34.9517 206.14C33.5315 208.319 31.5873 212.473 31.2787 219.174C31.2787 219.174 36.694 215.195 40.0652 214.265C43.867 213.216 47.3965 209.125 43.1855 206.923Z" fill="#8B9D36"/>
<path d="M43.1855 206.923C42.5028 207.15 41.8624 207.488 41.2902 207.925C40.7019 208.332 40.1438 208.782 39.6202 209.27C38.5621 210.238 37.5664 211.273 36.6393 212.367C35.6862 213.444 34.799 214.579 33.9142 215.719L31.2787 219.174C31.6143 218.529 31.9858 217.905 32.3394 217.268C32.7126 216.645 33.122 216.044 33.5125 215.429C34.3337 214.224 35.215 213.062 36.1532 211.946C37.118 210.844 38.1712 209.823 39.3022 208.892C40.4082 207.917 41.7447 207.239 43.1855 206.923Z" fill="#5E7C24"/>
<path d="M77.7201 279.997C77.7201 279.997 79.2441 274.737 83.1125 277.711C84.4275 278.756 85.3682 280.199 85.7934 281.824C86.4911 284.342 87.0941 288.904 85.3757 295.379C85.3757 295.379 81.4155 289.9 78.4857 287.961C75.1815 285.775 73.0502 280.778 77.7201 279.997Z" fill="#8B9D36"/>
<path d="M77.7201 279.998C78.9981 280.749 80.0661 281.81 80.8255 283.083C81.6224 284.32 82.3181 285.62 82.9056 286.97C83.4637 288.325 83.9537 289.707 84.3736 291.111C84.5607 291.819 84.77 292.52 84.9381 293.231C85.0834 293.948 85.2499 294.659 85.3757 295.379L83.9028 291.266C83.4025 289.904 82.8987 288.546 82.3143 287.224C81.7605 285.892 81.1236 284.597 80.4074 283.345C80.0559 282.717 79.6599 282.115 79.2225 281.543C78.8094 280.95 78.3019 280.427 77.7201 279.998V279.998Z" fill="#5E7C24"/>
<path d="M79.0954 224.39C79.0954 224.39 59.834 207.932 54.8425 304.085" stroke="#50661A" stroke-width="0.64428" stroke-miterlimit="10"/>
<path d="M60.8114 224.39C60.8114 224.39 51.2291 287.805 56.9708 304.084" stroke="#50661A" stroke-width="0.64428" stroke-miterlimit="10"/>
<path d="M53.3176 304.084C53.3176 304.084 46.1965 275.507 37.6021 279.997" stroke="#50661A" stroke-width="0.64428" stroke-miterlimit="10"/>
<path d="M54.341 295.563C54.341 295.563 60.5472 189.39 43.1855 206.923" stroke="#50661A" stroke-width="0.64428" stroke-miterlimit="10"/>
<path d="M62.0046 304.084C62.0046 304.084 69.1257 275.507 77.7201 279.997" stroke="#50661A" stroke-width="0.64428" stroke-miterlimit="10"/>
<path d="M35.1464 266.44C35.1464 266.44 48.6262 263.133 55.9756 303.421" stroke="#50661A" stroke-width="0.64428" stroke-miterlimit="10"/>
<path d="M39.5869 241.476C39.5869 241.476 43.4923 244.082 58.2699 303.421" stroke="#50661A" stroke-width="0.64428" stroke-miterlimit="10"/>
<path d="M76.4998 254.939C76.4998 254.939 61.9036 278.045 60.5473 304.084" stroke="#50661A" stroke-width="0.64428" stroke-miterlimit="10"/>
<path d="M37.6787 297.264V302.611C37.6739 303.102 37.8645 303.575 38.2085 303.926C38.5525 304.277 39.0217 304.477 39.5131 304.482H76.2658C76.7572 304.477 77.2264 304.277 77.5704 303.926C77.9144 303.575 78.105 303.102 78.1002 302.611V297.684C78.1049 297.196 77.9171 296.726 77.5775 296.376C77.238 296.025 76.774 295.823 76.2864 295.813L39.5336 295.394C39.2886 295.393 39.0459 295.441 38.8197 295.536C38.5934 295.63 38.3881 295.768 38.2156 295.942C38.0431 296.116 37.9068 296.322 37.8146 296.549C37.7224 296.776 37.6762 297.019 37.6787 297.264V297.264Z" fill="#D6694B"/>
<path d="M39.433 304.481L40.74 332.075H74.174L76.346 304.481H39.433Z" fill="#E19974"/>
<path d="M70.4829 253.366C70.534 250.848 75.7399 255.416 75.7399 255.416C72.6391 241.499 62.7317 247.302 62.7317 247.302C53.6724 237.074 47.7905 244.368 47.7905 244.368C51.8797 242.969 53.2133 245.572 53.2133 245.572C50.772 245.228 48.2866 245.724 46.1635 246.977C41.3981 250.933 42.9613 260.393 42.9613 260.393C44.5306 258.155 49.4428 257.075 51.9308 256.906C53.4939 256.802 53.2195 257.57 52.7986 258.155C52.5162 258.535 52.1521 258.846 51.7333 259.066C49.2454 260.363 46.8476 261.826 44.5562 263.445C42.2211 265.28 47.9245 274.122 47.9245 274.122C49.1366 272.32 52.5625 271.123 52.5625 271.123C56.2563 270.804 48.9515 276.211 48.9515 276.211L53.1811 282.86L57.679 281.188L56.8049 278.514C56.9771 275.924 58.3808 279.464 59.0378 280.023C59.6948 280.59 65.4364 275.436 65.4364 275.436C65.4364 275.436 62.1064 262.749 64.7028 264.167C67.3058 265.579 68.7857 271.331 69.3919 271.624C69.8449 271.845 72.365 267.518 73.6154 265.312C74.0683 264.525 74.3612 263.655 74.4772 262.754C74.5933 261.853 74.5302 260.938 74.2916 260.062C73.4562 257.609 72.1639 255.338 70.4829 253.366V253.366ZM55.9564 253.262C54.2976 254.635 51.7457 253.874 51.3377 252.852C50.9227 251.837 52.1924 249.814 54.0936 248.526C55.8735 247.315 57.9214 248.22 58.3297 249.241C58.7444 250.256 57.8002 251.727 55.9564 253.262V253.262Z" fill="#5E7C24"/>
<path d="M62.7301 247.302C63.0603 248.819 63.2762 250.358 63.376 251.907C63.4067 253.469 63.2679 255.03 62.962 256.561C62.6504 258.086 62.24 259.59 61.7333 261.062C61.2548 262.532 60.7593 264.005 60.2052 265.455C59.0759 268.345 57.7566 271.157 56.2561 273.873C55.5237 275.222 54.9198 276.637 54.4525 278.1C53.965 279.563 53.5857 281.061 53.3177 282.581C53.5936 279.475 54.44 276.447 55.8142 273.649C57.239 270.915 58.5048 268.102 59.6051 265.223C60.1726 263.792 60.6815 262.34 61.1779 260.877C61.6781 259.418 62.1275 257.95 62.4792 256.46C62.8348 254.969 63.0302 253.444 63.062 251.912C63.0473 250.37 62.9364 248.831 62.7301 247.302Z" fill="#50661A"/>
<path d="M63.1667 253.486C64.0739 254.097 64.8913 254.831 65.5951 255.668C66.3076 256.497 66.9534 257.38 67.5265 258.31C68.0958 259.24 68.6011 260.208 69.0387 261.206C69.4765 262.202 69.8387 263.229 70.122 264.279L68.5874 261.428C68.0648 260.49 67.5467 259.554 66.9784 258.648C66.42 257.738 65.8284 256.848 65.2036 255.981C64.5788 255.106 63.8984 254.273 63.1667 253.486V253.486Z" fill="#50661A"/>
<path d="M58.6649 268.357C59.3369 269.01 59.8733 269.79 60.2433 270.651C60.4335 271.084 60.5729 271.539 60.6587 272.004C60.7724 272.484 60.7022 272.989 60.4619 273.419C60.4529 272.975 60.3546 272.538 60.1728 272.133C60.0062 271.725 59.8348 271.317 59.6533 270.909C59.2691 270.08 58.9389 269.228 58.6649 268.357V268.357Z" fill="#50661A"/>
<path d="M61.1756 261.804L57.9056 263.041C56.8259 263.465 55.7509 263.895 54.705 264.382C53.6513 264.847 52.6267 265.374 51.6368 265.962C50.636 266.542 49.7111 267.244 48.8836 268.052C49.5381 267.063 50.3794 266.21 51.3604 265.542C52.3259 264.86 53.3571 264.274 54.4387 263.796C56.5808 262.822 58.8483 262.151 61.1756 261.804Z" fill="#50661A"/>
<path d="M93.5843 237.634C93.5843 237.634 101.052 226.478 110.392 239.652C110.392 239.652 103.078 237.445 104.15 240.135C106.751 241.386 109.076 243.143 110.99 245.302C112.284 246.985 112.877 249.103 112.645 251.213C112.361 254.178 111.73 260.035 111.174 260.031C110.431 260.025 106.366 254.68 103.098 254.497C99.8297 254.315 108.858 266.066 108.858 266.066C108.858 266.066 105.332 274.423 104.416 274.161C103.499 273.899 100.495 270.863 101.476 273.689L103.551 276.082L99.7365 280.121L92.4845 275.216C92.4845 275.216 97.4859 265.799 93.8838 268.004C93.8838 268.004 90.9389 271.001 90.5129 273.526C90.5129 273.526 80.7936 267.042 82.3406 263.915C83.9326 261.061 85.7051 258.311 87.6473 255.682C88.0386 255.158 88.2931 254.544 88.3878 253.896C88.4848 253.143 88.2935 252.458 86.9124 253.266C84.4572 254.702 79.962 258.326 79.366 261.492C79.366 261.492 73.5628 252.262 76.6396 245.663C78.194 243.302 80.4889 241.525 83.1635 240.61C83.1635 240.61 80.65 238.528 77.1231 242.079C77.1231 242.079 79.8417 231.38 93.5843 237.634Z" fill="#C4CE6E"/>
<path d="M93.5843 237.634C94.8897 240.994 95.9688 244.438 96.8144 247.942C97.6905 251.439 98.3685 254.986 98.8995 258.552C99.4157 262.122 99.7499 265.716 99.9009 269.32C100.056 272.921 100.001 276.527 99.7364 280.121C99.7081 276.521 99.69 272.928 99.406 269.347C99.1791 265.765 98.7979 262.197 98.2627 258.645C97.7874 255.088 97.1034 251.561 96.3341 248.055C95.5604 244.549 94.6679 241.066 93.5843 237.634Z" fill="#8B9D36"/>
<path d="M95.4483 243.572C94.844 244.324 94.3041 245.125 93.8343 245.967C93.3652 246.8 92.9423 247.657 92.5673 248.536C92.191 249.414 91.8635 250.314 91.5602 251.226C91.26 252.14 90.9915 253.068 90.7059 254.006C90.7357 253.025 90.8595 252.05 91.0755 251.092C91.2916 250.131 91.5927 249.191 91.9754 248.283C92.3657 247.375 92.8471 246.509 93.4122 245.698C93.967 244.88 94.6553 244.162 95.4483 243.572V243.572Z" fill="#8B9D36"/>
<path d="M98.5556 258.348C99.5447 258.571 100.477 258.995 101.295 259.594C102.113 260.193 102.799 260.954 103.309 261.83C103.651 262.41 103.893 263.042 104.027 263.702C103.343 262.611 102.533 261.604 101.613 260.702C100.68 259.812 99.6551 259.023 98.5556 258.348V258.348Z" fill="#8B9D36"/>
<path d="M481.983 333.075H29.9831C29.7179 333.075 29.4635 332.97 29.276 332.782C29.0884 332.595 28.9831 332.34 28.9831 332.075C28.9831 331.81 29.0884 331.556 29.276 331.368C29.4635 331.181 29.7179 331.075 29.9831 331.075H481.983C482.248 331.075 482.503 331.181 482.69 331.368C482.878 331.556 482.983 331.81 482.983 332.075C482.983 332.34 482.878 332.595 482.69 332.782C482.503 332.97 482.248 333.075 481.983 333.075Z" fill="#935B50"/>
</svg>
