<svg width="320" height="320" viewBox="0 0 320 320" fill="none" xmlns="http://www.w3.org/2000/svg">
<path d="M233.333 213.333H19.9998C12.6665 213.333 6.6665 207.333 6.6665 200V66.6666C6.6665 59.3333 12.6665 53.3333 19.9998 53.3333H233.333C240.666 53.3333 246.666 59.3333 246.666 66.6666V200C246.666 207.333 240.666 213.333 233.333 213.333Z" fill="#1F9ED6"/>
<path d="M233.333 213.333H19.9998C12.6665 213.333 6.6665 207.333 6.6665 200V173.333H246.666V200C246.666 207.333 240.666 213.333 233.333 213.333Z" fill="#E7F0F3"/>
<path d="M240 180H13.3332C9.33317 180 6.6665 177.333 6.6665 173.333C6.6665 169.333 9.33317 166.667 13.3332 166.667H240C244 166.667 246.666 169.333 246.666 173.333C246.666 177.333 244 180 240 180Z" fill="#010101"/>
<path d="M126.667 200C130.349 200 133.333 197.015 133.333 193.333C133.333 189.652 130.349 186.667 126.667 186.667C122.985 186.667 120 189.652 120 193.333C120 197.015 122.985 200 126.667 200Z" fill="black"/>
<path d="M146.667 273.333H106.667C102.667 273.333 100 270.667 100 266.667V213.333C100 209.333 102.667 206.667 106.667 206.667H146.667C150.667 206.667 153.333 209.333 153.333 213.333V266.667C153.333 270.667 150.667 273.333 146.667 273.333ZM113.333 260H140V220H113.333V260Z" fill="#010101"/>
<path d="M106.667 213.333H146.667V266.667H106.667V213.333Z" fill="#D8E5EA"/>
<path d="M153.333 273.333H100V206.667H153.333V273.333ZM113.333 260H140V220H113.333V260Z" fill="#010101"/>
<path d="M190 273.333H63.3333C59.3333 273.333 56.6666 270.667 56.6666 266.667C56.6666 262.667 59.3333 260 63.3333 260H190C194 260 196.667 262.667 196.667 266.667C196.667 270.667 194 273.333 190 273.333ZM233.333 220H20C8.66666 220 0 211.333 0 200V66.6668C0 55.3334 8.66666 46.6667 20 46.6667H233.333C244.667 46.6667 253.333 55.3334 253.333 66.6668V200C253.333 211.333 244.667 220 233.333 220ZM20 60.0001C16 60.0001 13.3333 62.6667 13.3333 66.6668V200C13.3333 204 16 206.667 20 206.667H233.333C237.333 206.667 240 204 240 200V66.6668C240 62.6667 237.333 60.0001 233.333 60.0001H20Z" fill="#010101"/>
<path d="M233.333 46.6667H20C8.66666 46.6667 0 55.3334 0 66.6668V200C0 211.333 8.66666 220 20 220H100V260H63.3333C59.3333 260 56.6666 262.667 56.6666 266.667C56.6666 270.667 59.3333 273.333 63.3333 273.333H190C194 273.333 196.667 270.667 196.667 266.667C196.667 262.667 194 260 190 260H153.333V220H233.333C244.667 220 253.333 211.333 253.333 200V66.6668C253.333 55.3334 244.667 46.6667 233.333 46.6667ZM13.3333 66.6668C13.3333 62.6667 16 60.0001 20 60.0001H233.333C237.333 60.0001 240 62.6667 240 66.6668V166.667H13.3333V66.6668ZM140 260H113.333V220H140V260ZM240 200C240 204 237.333 206.667 233.333 206.667H20C16 206.667 13.3333 204 13.3333 200V180H240V200Z" fill="#010101"/>
<path d="M126.667 200C130.349 200 133.333 197.015 133.333 193.333C133.333 189.652 130.349 186.667 126.667 186.667C122.985 186.667 120 189.652 120 193.333C120 197.015 122.985 200 126.667 200Z" fill="#010101"/>
<path d="M206.667 106.667C206.667 99.3333 212.667 93.3333 220 93.3333H300C307.334 93.3333 313.334 99.3333 313.334 106.667V253.333C313.334 260.667 307.334 266.667 300 266.667H220C212.667 266.667 206.667 260.667 206.667 253.333V106.667Z" fill="#1F9ED6"/>
<path d="M206.667 106.667C206.667 99.3333 212.667 93.3333 220 93.3333H300C307.334 93.3333 313.334 99.3333 313.334 106.667V126.667H206.667V106.667ZM313.334 253.333C313.334 260.667 307.334 266.667 300 266.667H220C212.667 266.667 206.667 260.667 206.667 253.333V233.333H313.334V253.333Z" fill="#E7F0F3"/>
<path d="M126.667 200C130.349 200 133.333 197.015 133.333 193.333C133.333 189.652 130.349 186.667 126.667 186.667C122.985 186.667 120 189.652 120 193.333C120 197.015 122.985 200 126.667 200Z" fill="black"/>
<path d="M300 273.333H220C208.667 273.333 200 264.667 200 253.333V240C200 236 202.667 233.333 206.667 233.333C210.667 233.333 213.333 236 213.333 240V253.333C213.333 257.333 216 260 220 260H300C304 260 306.667 257.333 306.667 253.333V106.667C306.667 102.667 304 100 300 100H220C216 100 213.333 102.667 213.333 106.667C213.333 110.667 210.667 113.333 206.667 113.333C202.667 113.333 200 110.667 200 106.667C200 95.3334 208.667 86.6667 220 86.6667H300C311.333 86.6667 320 95.3334 320 106.667V253.333C320 264.667 311.333 273.333 300 273.333Z" fill="#010101"/>
<path d="M260 253.333C263.682 253.333 266.666 250.349 266.666 246.667C266.666 242.985 263.682 240 260 240C256.318 240 253.333 242.985 253.333 246.667C253.333 250.349 256.318 253.333 260 253.333Z" fill="#010101"/>
<path d="M300 86.6667H220C208.667 86.6667 200 95.3334 200 106.667V253.333C200 264.667 208.667 273.333 220 273.333H300C311.333 273.333 320 264.667 320 253.333V106.667C320 95.3334 311.333 86.6667 300 86.6667ZM306.667 253.333C306.667 257.333 304 260 300 260H220C216 260 213.333 257.333 213.333 253.333V106.667C213.333 102.667 216 100 220 100H300C304 100 306.667 102.667 306.667 106.667V253.333Z" fill="#010101"/>
<path d="M259.333 135.333L248 124C247.333 123.333 246.667 122.667 246 122.667C244.667 122 242.667 122 240.667 122.667C240 123.333 239.333 123.333 238.667 124L227.333 135.333C224.667 138 224.667 142 227.333 144.667C230 147.333 234 147.333 236.667 144.667V162C236.667 164.667 234.667 166.667 232 166.667H170.667C166.667 166.667 164 169.333 164 173.333C164 177.333 166.667 180 170.667 180H232C242 180 250 172 250 162V144.667C251.333 146 252.667 146.667 254.667 146.667C256.667 146.667 258 146 259.333 144.667C262 142 262 138 259.333 135.333V135.333ZM162 144C162.667 144.667 164 144.667 164.667 144.667C165.333 144.667 166.667 144.667 167.333 144C168 143.333 168.667 143.333 169.333 142.667L180.667 131.333C183.333 128.667 183.333 124.667 180.667 122C178 119.333 174 119.333 171.333 122V104.667C171.333 102 173.333 100 176 100H237.333C241.333 100 244 97.3334 244 93.3334C244 89.3334 241.333 86.6667 237.333 86.6667H176C166 86.6667 158 94.6667 158 104.667V122C155.333 119.333 151.333 119.333 148.667 122C146 124.667 146 128.667 148.667 131.333L160 142.667C160.667 143.333 161.333 143.333 162 144V144Z" fill="black"/>
</svg>
