<svg width="314" height="215" viewBox="0 0 314 215" fill="none" xmlns="http://www.w3.org/2000/svg">
<g clip-path="url(#clip0_209_336)">
<path d="M214.609 55.1399C216.149 57.9899 214 61.4099 211.739 63.7299C209.479 66.0499 206.779 68.6899 207.159 71.9099C207.51 74.8799 210.399 76.9299 211.3 79.7799C212.26 82.8299 210.76 86.1299 208.75 88.6199C207.859 89.7299 206.869 90.7499 205.89 91.7899C205.41 90.8299 205.15 89.7999 205.27 88.7299C205.51 86.4799 207.35 84.5299 207.16 82.2699C206.971 79.8299 204.57 78.2699 202.551 76.8899C200.53 75.5099 198.421 73.2899 199.141 70.9499C199.391 70.1599 199.941 69.4899 200.221 68.7199C201.241 65.9499 198.721 63.2399 196.461 61.3599C196.461 61.3599 195.221 59.9399 193.391 60.4999C191.481 60.6899 190.881 62.4699 190.881 62.4699C189.521 65.0899 188.251 68.5599 190.251 70.7199C190.82 71.3199 191.58 71.7299 192.11 72.3599C193.69 74.2399 192.6 77.0999 191.27 79.1599C189.94 81.2099 188.33 83.5799 189.09 85.9099C189.8 88.0599 192.239 89.1499 193.329 91.1299C194.5 93.2399 193.88 95.9199 192.76 98.0699C191.65 100.21 190.079 102.13 189.25 104.4C188.43 106.68 188.59 109.58 190.489 111.08C191.809 112.12 193.739 112.32 194.779 113.63C194.889 113.77 195 113.92 195.09 114.06H170.98C170.43 112.01 169.84 110.26 169.27 108.82C169.77 108.58 170.19 108.32 170.51 108.03C170.51 108.03 165.92 101.16 165.329 100.18C164.859 99.3899 165.079 95.7799 165.46 93.6799C167.25 89.1599 169.069 84.1599 169.649 82.2499C170.059 80.9099 170.529 78.6599 170.939 76.3999C171.489 73.4299 171.949 70.4399 172.099 69.4799C172.129 69.2999 172.149 69.1899 172.149 69.1699C171.859 68.3099 171.17 67.4799 169.879 67.4799C169.589 67.4799 169.259 67.5199 168.899 67.6299C166.489 66.5599 162.679 66.0399 161.069 65.6999C160.96 65.6699 160.849 65.6399 160.739 65.6199C160.662 65.5907 160.582 65.5706 160.5 65.5599C160.489 65.5499 160.48 65.5499 160.47 65.5499C160.47 65.5499 158.77 62.3599 159.98 57.9899C159.98 57.9899 160.02 57.9199 160.1 57.7899C160.49 58.1699 160.95 58.4599 161.48 58.6199C163.66 59.2899 166.11 57.5799 166.96 54.7999C167.81 52.0299 166.73 49.2399 164.539 48.5799C163.968 48.4054 163.361 48.3847 162.779 48.5199C162.75 45.7699 161.729 43.0599 158.569 41.3299C150.069 36.6699 144.219 45.3699 145.779 48.6099C145.559 50.9199 145.849 53.8899 147.039 57.6799C148.359 61.8699 150.269 63.4499 152.269 63.3599C152.319 63.9099 152.379 64.5199 152.429 65.1399C152.439 65.3299 152.459 65.5299 152.469 65.7199C152.029 65.9099 151.769 66.0799 151.679 66.1599C151.664 66.1638 151.651 66.1706 151.639 66.1799L150.259 66.6999C149.908 66.8299 149.569 66.9399 149.269 67.0399C149.069 67.1099 148.879 67.1699 148.719 67.2099C148.589 67.2499 148.469 67.2799 148.368 67.2999C148.259 67.3199 148.129 67.3899 147.969 67.4999C147.309 67.3799 146.669 67.0899 145.889 66.9199C145.999 67.2399 146.139 67.5599 146.288 67.8499C145.599 68.0299 144.809 68.3999 143.948 69.0399C143.948 69.0399 141.058 71.9799 138.759 83.0399C137.639 88.4199 135.519 96.1599 134.969 97.1099C134.769 97.4599 134.129 97.9999 133.229 98.7499L127.369 75.9499H85.189L83.939 77.1199L90.96 104.42H104.399V112.12H99.179C98.639 112.12 98.158 112.34 97.809 112.69C97.459 113.04 97.249 113.52 97.249 114.06H62.738V118.39H65.589V154.96H62.738V159.3H65.589V195.869H64.488C56.108 194.119 48.448 191.47 42.038 187.47C28.679 179.13 35.629 156.32 26.379 144.08C18.608 133.789 8.038 127.03 2.849 114.139C-5.991 92.2289 6.609 63.6989 28.669 55.9189C42.448 51.0589 57.049 48.8289 70.679 43.4889C84.749 37.9689 90.179 29.7089 100.908 19.9189C120.318 2.23892 153.349 5.62892 177.138 15.9589C180.968 17.6189 184.558 19.4589 187.808 21.4289C197.728 27.3989 205.958 35.7589 215.308 42.3689C212.948 45.3589 210.658 49.3389 212.628 52.5289C213.199 53.4599 214.078 54.1799 214.609 55.1399V55.1399ZM199.161 166.601H206.038V197.55H199.161V166.601Z" fill="#CCE9FF"/>
<path d="M143.139 107.8L142.219 108.46V108.54C141.489 108.57 140.649 108.63 139.879 108.73C138.149 108.97 134.108 111.2 133.318 112.12H123.728C125.588 111 128.568 109.28 131.728 107.57C136.037 105.24 139.148 102.93 139.958 101.71C140.798 100.43 142.817 95.53 144.617 90.84C144.527 91.97 144.437 93.17 144.767 94.83C145.408 98.11 143.809 104.44 143.139 107.8V107.8ZM120.339 108.26C120.339 108.37 120.339 108.48 120.358 108.58C119.828 108.61 119.278 108.66 118.758 108.73C117.028 108.97 112.978 111.2 112.188 112.12H110.978V104.42H125.678C122.889 106.44 120.339 108.26 120.339 108.26V108.26ZM312.089 107.99C309.209 120.23 299.028 128.55 293.828 139.63C288.278 151.43 288.868 166.13 280.038 176.36C276.158 180.85 270.809 183.82 265.309 186.07C255.199 190.2 244.739 193.14 234.079 195.2L239.85 132.19H244.67V125.38H239.05C239.359 125.2 239.68 125 240 124.78C244.52 121.7 241.579 117.04 244.3 113.63C245.34 112.32 247.279 112.12 248.59 111.08C250.489 109.58 250.65 106.68 249.829 104.4C249.01 102.13 247.439 100.21 246.319 98.07C245.199 95.92 244.579 93.24 245.75 91.13C246.84 89.15 249.289 88.06 249.989 85.91C250.75 83.58 249.149 81.21 247.819 79.16C246.479 77.1 245.399 74.24 246.969 72.36C247.499 71.73 248.259 71.32 248.828 70.72C250.839 68.56 249.558 65.09 248.198 62.47C248.198 62.47 247.598 60.69 245.698 60.5C243.868 59.94 242.629 61.36 242.629 61.36C240.358 63.24 237.839 65.95 238.858 68.72C239.148 69.49 239.698 70.16 239.938 70.95C240.668 73.29 238.558 75.51 236.528 76.89C234.508 78.27 232.108 79.83 231.919 82.27C231.738 84.53 233.568 86.48 233.809 88.73C233.939 89.9 233.629 91.03 233.049 92.06C231.999 90.93 230.908 89.83 229.939 88.62C227.929 86.13 226.429 82.83 227.389 79.78C228.288 76.93 231.179 74.88 231.529 71.91C231.909 68.69 229.21 66.05 226.949 63.73C224.689 61.41 222.529 57.99 224.09 55.14C224.61 54.18 225.489 53.46 226.06 52.53C226.789 51.34 226.94 50.05 226.71 48.73C235.649 52.3 245.6 53.46 255.05 54.31C276.109 56.2 320.019 74.35 312.089 107.99V107.99Z" fill="#CCE9FF"/>
<path d="M248.589 111.08C247.278 112.12 245.339 112.32 244.299 113.63C241.578 117.04 244.519 121.7 239.999 124.78C239.679 125 239.358 125.2 239.049 125.38C235.299 127.6 231.889 127.49 228.729 125.38C228.619 125.32 228.519 125.25 228.419 125.17C227.568 124.57 226.738 123.82 225.929 122.94C224.368 121.23 222.949 118.67 223.819 116.4C224.649 114.24 227.239 112.8 226.46 110.04C226 108.43 224.289 107.5 223.48 106.03C222.31 103.91 223.289 101.18 224.92 99.3999C226.56 97.6199 228.75 96.4599 230.609 94.9099C231.559 94.1199 232.449 93.1499 233.05 92.0599C233.63 91.0299 233.94 89.8999 233.81 88.7299C233.57 86.4799 231.74 84.5299 231.92 82.2699C232.109 79.8299 234.51 78.2699 236.529 76.8899C238.559 75.5099 240.67 73.2899 239.939 70.9499C239.699 70.1599 239.149 69.4899 238.859 68.7199C237.839 65.9499 240.359 63.2399 242.63 61.3599C242.63 61.3599 243.869 59.9399 245.699 60.4999C247.599 60.6899 248.199 62.4699 248.199 62.4699C249.559 65.0899 250.84 68.5599 248.829 70.7199C248.26 71.3199 247.5 71.7299 246.97 72.3599C245.4 74.2399 246.48 77.0999 247.82 79.1599C249.15 81.2099 250.751 83.5799 249.99 85.9099C249.29 88.0599 246.841 89.1499 245.751 91.1299C244.58 93.2399 245.2 95.9199 246.32 98.0699C247.44 100.21 249.01 102.13 249.83 104.4C250.649 106.68 250.488 109.58 248.589 111.08V111.08Z" fill="#0B4870"/>
<path d="M244.824 65.2249C243.946 67.7307 243.216 70.2862 242.638 72.8779C242.345 74.1739 242.062 75.4649 241.992 76.7629C241.925 78.0439 242.08 79.3729 242.209 80.6869C242.51 83.3219 242.634 86.0879 242.061 88.7729C241.778 90.1139 241.333 91.4479 240.587 92.6609C240.399 92.9661 240.191 93.2587 239.965 93.5369C239.749 93.8049 239.45 94.0989 239.274 94.3079C238.855 94.7379 238.521 95.2749 238.201 95.8079C237.017 98.0539 236.459 100.577 236.585 103.113C236.635 103.727 236.706 104.343 236.876 104.917C236.943 105.211 237.049 105.484 237.163 105.75L237.35 106.206C237.42 106.376 237.493 106.544 237.551 106.713C238.009 108.08 238.236 109.497 238.198 110.921C238.139 112.337 237.869 113.78 237.182 115.08C236.859 115.736 236.389 116.326 235.872 116.85C235.585 117.087 235.324 117.351 234.996 117.53L234.183 118.04C233.245 118.683 232.782 119.913 232.668 121.175C232.529 122.444 232.671 123.774 232.946 125.064V125.067C232.949 125.077 232.949 125.088 232.947 125.098C232.946 125.109 232.942 125.118 232.936 125.127C232.93 125.136 232.923 125.144 232.914 125.149C232.905 125.155 232.895 125.159 232.885 125.161C232.847 125.171 232.812 125.15 232.797 125.114C232.278 123.852 231.99 122.506 231.948 121.142C231.937 120.43 232.042 119.721 232.259 119.043C232.472 118.341 232.927 117.693 233.489 117.181L234.308 116.548C234.557 116.385 234.75 116.158 234.968 115.959C235.35 115.509 235.695 115.025 235.924 114.465C236.428 113.379 236.617 112.133 236.608 110.9C236.618 109.663 236.411 108.435 235.999 107.269L235.649 106.379C235.506 106.037 235.393 105.684 235.311 105.323C235.123 104.613 235.056 103.897 235.012 103.188C234.969 100.375 235.692 97.6043 237.103 95.1709C237.482 94.5769 237.875 93.9829 238.398 93.4699C238.665 93.1849 238.85 93.0189 239.061 92.7779C239.262 92.5489 239.448 92.3039 239.615 92.0439C240.299 91.0079 240.751 89.7959 241.055 88.5479C241.351 87.2939 241.512 85.9979 241.552 84.6949C241.604 83.3949 241.512 82.0809 241.418 80.7519C241.344 79.4209 241.232 78.0889 241.356 76.7129C241.49 75.3549 241.831 74.0479 242.178 72.7639C242.859 70.1851 243.693 67.649 244.675 65.1689C244.683 65.1495 244.699 65.134 244.718 65.1258C244.737 65.1176 244.759 65.1172 244.779 65.1249C244.82 65.1409 244.837 65.1849 244.824 65.2249V65.2249Z" fill="#0E538C"/>
<path opacity="0.7" d="M182.349 118.39H202.199V154.96H182.349V118.39Z" fill="#FFBE55"/>
<path d="M212.629 110.04C211.839 112.8 214.439 114.24 215.259 116.4C216.129 118.67 214.709 121.23 213.149 122.94C212.239 123.93 211.309 124.75 210.349 125.38C210.099 125.56 209.839 125.71 209.578 125.86C207.268 127.14 204.818 127.37 202.198 126.42V118.39H205.538C205.538 118.34 205.549 118.3 205.559 118.25C205.609 117.95 205.679 117.65 205.779 117.36C205.849 117.12 205.939 116.88 206.039 116.64V114.06H195.09C195 113.92 194.89 113.77 194.779 113.63C193.739 112.32 191.809 112.12 190.489 111.08C188.59 109.58 188.43 106.68 189.25 104.4C190.079 102.13 191.649 100.21 192.76 98.0699C193.88 95.9199 194.5 93.2399 193.329 91.1299C192.239 89.1499 189.8 88.0599 189.09 85.9099C188.329 83.5799 189.94 81.2099 191.27 79.1599C192.6 77.0999 193.69 74.2399 192.11 72.3599C191.58 71.7299 190.82 71.3199 190.251 70.7199C188.251 68.5599 189.521 65.0899 190.881 62.4699C190.881 62.4699 191.481 60.6899 193.391 60.4999C195.221 59.9399 196.461 61.3599 196.461 61.3599C198.721 63.2399 201.24 65.9499 200.221 68.7199C199.941 69.4899 199.391 70.1599 199.141 70.9499C198.421 73.2899 200.531 75.5099 202.551 76.8899C204.571 78.2699 206.971 79.8299 207.16 82.2699C207.351 84.5299 205.511 86.4799 205.27 88.7299C205.15 89.7999 205.41 90.8299 205.89 91.7899C206.49 92.9799 207.44 94.0499 208.47 94.9099C210.329 96.4599 212.52 97.6199 214.159 99.3999C215.8 101.18 216.779 103.91 215.6 106.03C214.788 107.5 213.078 108.43 212.629 110.04V110.04Z" fill="#0B4870"/>
<path d="M202.469 96.0899C203.549 98.2899 204.109 100.7 204.069 103.19C204.019 103.9 203.96 104.61 203.769 105.32C203.719 105.54 203.659 105.76 203.579 105.97C203.539 106.11 203.479 106.24 203.43 106.38L203.079 107.27C202.68 108.42 202.449 109.66 202.47 110.9C202.46 111.98 202.61 113.08 202.98 114.06H201.45C201.091 113.05 200.921 111.98 200.881 110.92C200.851 109.5 201.07 108.08 201.53 106.71C201.591 106.54 201.66 106.38 201.73 106.21L201.92 105.75C202.039 105.48 202.14 105.21 202.21 104.92L202.27 104.7C202.4 104.19 202.46 103.65 202.5 103.11C202.6 101.31 202.319 99.4399 201.699 97.6999C201.479 97.0399 201.199 96.4099 200.88 95.8099C200.56 95.2799 200.23 94.7399 199.81 94.3099C199.63 94.0999 199.33 93.8099 199.12 93.5399C198.891 93.2636 198.684 92.9693 198.501 92.6599C197.751 91.4499 197.301 90.1199 197.021 88.7699C196.451 86.0899 196.571 83.3199 196.871 80.6899C197.002 79.3699 197.161 78.0399 197.092 76.7599C197.022 75.4699 196.741 74.1699 196.442 72.8799C195.872 70.2899 195.132 67.7299 194.262 65.2199C194.241 65.1799 194.262 65.1399 194.302 65.1299C194.342 65.1099 194.392 65.1299 194.402 65.1699C195.382 67.6499 196.222 70.1799 196.902 72.7599C197.253 74.0499 197.592 75.3499 197.722 76.7099C197.852 78.0899 197.732 79.4199 197.661 80.7499C197.571 82.0799 197.481 83.3899 197.531 84.6999C197.571 85.9999 197.731 87.2899 198.021 88.5499C198.331 89.7999 198.781 91.0099 199.461 92.0399C199.631 92.2999 199.82 92.5499 200.021 92.7799C200.231 93.0199 200.411 93.1899 200.681 93.4699C201.201 93.9799 201.601 94.5799 201.981 95.1699C202.149 95.4699 202.319 95.7799 202.469 96.0899V96.0899Z" fill="#0E538C"/>
<path d="M207.129 121.14C207.107 121.799 207.031 122.454 206.899 123.1C206.759 123.79 206.549 124.47 206.279 125.11C206.269 125.15 206.229 125.17 206.189 125.16C206.149 125.15 206.119 125.11 206.129 125.07V125.06C206.318 124.18 206.439 123.28 206.448 122.4C206.468 121.99 206.448 121.58 206.408 121.18C206.328 120.23 206.049 119.31 205.518 118.63C205.448 118.55 205.378 118.47 205.298 118.39H205.537C205.537 118.34 205.548 118.3 205.558 118.25C205.608 117.95 205.678 117.65 205.778 117.36C205.868 117.45 205.959 117.55 206.038 117.65C206.398 118.06 206.669 118.54 206.818 119.04C207.038 119.74 207.149 120.45 207.129 121.14Z" fill="#F2F2F2"/>
<path d="M236.729 104.26C236.599 104.48 236.439 104.7 236.269 104.9C236.019 105.2 235.729 105.47 235.419 105.72C234.009 106.9 232.198 107.69 231.368 109.32C228.738 114.44 233.749 119.71 228.698 124.89C228.608 124.99 228.509 125.08 228.419 125.17C228.349 125.24 228.278 125.32 228.198 125.38C222.459 130.94 216.408 130.84 209.988 126.16C209.848 126.06 209.718 125.96 209.578 125.86C209.389 125.7 209.188 125.54 208.999 125.38C208.229 124.71 207.499 123.94 206.898 123.1C206.738 122.87 206.588 122.64 206.448 122.4C205.768 121.23 205.379 119.95 205.518 118.63C205.518 118.55 205.528 118.47 205.538 118.39C205.538 118.34 205.549 118.3 205.559 118.25C205.609 117.95 205.679 117.65 205.779 117.36C205.849 117.12 205.939 116.88 206.039 116.64C206.989 114.28 208.73 112.08 207.319 109.32C206.539 107.81 204.939 107.02 203.579 105.97C203.159 105.65 202.76 105.3 202.42 104.9C202.364 104.838 202.314 104.771 202.27 104.7C200.76 102.77 200.81 100.06 201.7 97.7C201.91 97.14 202.171 96.6 202.47 96.09C202.49 96.03 202.53 95.97 202.56 95.92C203.48 94.4 204.67 93.09 205.89 91.79C206.869 90.75 207.86 89.73 208.75 88.62C210.76 86.13 212.26 82.83 211.3 79.78C210.4 76.93 207.51 74.88 207.159 71.91C206.779 68.69 209.479 66.05 211.739 63.73C214 61.41 216.149 57.99 214.609 55.14C214.079 54.18 213.199 53.46 212.63 52.53C210.659 49.34 212.949 45.36 215.31 42.37C215.4 42.25 215.5 42.13 215.59 42.02C215.59 42.02 216.829 39.86 219.35 40.11C221.86 39.86 223.1 42.02 223.1 42.02C224.67 43.96 226.289 46.38 226.71 48.73C226.94 50.05 226.789 51.34 226.06 52.53C225.49 53.46 224.61 54.18 224.09 55.14C222.529 57.99 224.69 61.41 226.949 63.73C229.21 66.05 231.909 68.69 231.529 71.91C231.179 74.88 228.289 76.93 227.389 79.78C226.429 82.83 227.929 86.13 229.939 88.62C230.909 89.83 232 90.93 233.049 92.06C234.189 93.27 235.278 94.51 236.139 95.92C236.249 96.1 236.349 96.28 236.449 96.47C236.75 97.04 237 97.64 237.189 98.27C237.819 100.31 237.809 102.53 236.729 104.26V104.26Z" fill="#2A94F4"/>
<path d="M202.199 125.38H244.67V132.19H202.199V125.38Z" fill="#0E538C"/>
<path d="M239.849 132.19L234.078 195.2L233.859 197.55H206.038V195.87H204.679L202.199 168.85V159.3H206.038V154.96H202.199V132.19H239.849ZM217.747 124.058C216.758 122.574 217.747 124.058 217.325 122.27C217.124 121.35 217.076 120.404 217.183 119.469C217.273 118.505 217.693 117.544 218.292 116.735L219.188 115.7C219.469 115.427 219.66 115.079 219.885 114.765C220.266 114.084 220.586 113.365 220.737 112.583C221.108 111.042 221.028 109.376 220.698 107.782C220.398 106.175 219.78 104.618 218.958 103.237L218.274 102.174C218 101.769 217.762 101.34 217.562 100.894C217.132 100.022 216.862 99.1119 216.619 98.2039C215.834 94.5708 216.048 90.7926 217.241 87.2719C217.579 86.4039 217.93 85.5329 218.475 84.7329C218.749 84.2939 218.942 84.0289 219.152 83.6619C219.353 83.3119 219.531 82.9459 219.682 82.5659C220.3 81.0449 220.568 79.3569 220.636 77.6589C220.686 75.9441 220.567 74.2285 220.281 72.5369C220.005 70.8399 219.54 69.1609 219.076 67.4639C218.636 65.7569 218.145 64.0579 217.945 62.2449C217.762 60.4479 217.867 58.6669 217.979 56.9139C218.187 53.3939 218.615 49.8859 219.241 46.4229C219.243 46.4093 219.248 46.3961 219.255 46.3844C219.262 46.3726 219.272 46.3624 219.283 46.3545C219.295 46.3465 219.307 46.341 219.321 46.3381C219.334 46.3353 219.348 46.3352 219.362 46.3379C219.388 46.3433 219.411 46.3583 219.427 46.38C219.442 46.4017 219.449 46.4284 219.446 46.4549C218.958 49.9305 218.678 53.432 218.606 56.9409C218.563 58.6949 218.535 60.4459 218.776 62.1439C219.026 63.8209 219.577 65.5029 220.084 67.1729C221.159 70.5099 222.042 74.0619 221.997 77.6899C221.976 79.5029 221.751 81.3479 221.099 83.1159C220.939 83.5569 220.745 83.9879 220.523 84.4099C220.312 84.8149 220.001 85.2719 219.825 85.5889C219.393 86.2569 219.107 87.0409 218.826 87.8119C217.875 90.9889 217.81 94.5269 218.634 97.6999C218.863 98.4839 219.112 99.2629 219.481 99.9619C219.646 100.325 219.852 100.654 220.068 100.971L220.433 101.511C220.57 101.71 220.705 101.908 220.825 102.115C221.773 103.767 222.44 105.543 222.759 107.399C223.054 109.252 223.079 111.19 222.527 113.053C222.281 113.988 221.826 114.873 221.291 115.685C220.982 116.069 220.714 116.479 220.335 116.798L219.412 117.671C218.367 118.75 218.089 120.462 218.271 122.126C218.418 123.809 218.87 121.38 219.561 122.98L217.747 124.058V124.058Z" fill="#0E538C"/>
<path d="M124.899 111.03L121.679 111.32L119.889 111.48C119.659 111.41 117.359 111.69 116.089 112.12C115.948 112.17 115.828 112.22 115.719 112.27C115.009 112.59 113.649 112.82 112.799 112.77C112.349 112.74 112.049 112.63 112.049 112.41C112.049 112.38 112.049 112.35 112.059 112.32C112.079 112.26 112.119 112.2 112.189 112.12C112.979 111.2 117.029 108.97 118.759 108.73C119.279 108.66 119.828 108.61 120.359 108.58C121.75 108.49 122.96 108.5 122.96 108.5L124.899 111.03V111.03Z" fill="#F1B99E"/>
<path d="M150.269 68.9699C150.269 68.9799 150.249 69.0899 150.219 69.2799C150.169 69.6499 150.069 70.3099 149.929 71.1499C149.658 72.8365 149.367 74.5199 149.058 76.1999C149.058 76.2299 149.048 76.2499 149.048 76.2799C148.848 77.3799 148.628 78.4799 148.418 79.4699C148.197 80.4799 147.978 81.3799 147.777 82.0499C147.298 83.5899 146.027 87.1399 144.617 90.8299V90.8399C142.817 95.5299 140.798 100.43 139.958 101.71C139.147 102.93 136.037 105.24 131.728 107.57C128.568 109.28 125.588 111 123.728 112.12C123.388 112.33 123.078 112.51 122.818 112.67C122.818 112.67 122.618 112.46 122.328 112.12C122.129 111.9 121.908 111.63 121.679 111.32C121.089 110.52 120.469 109.5 120.359 108.58C120.34 108.48 120.34 108.37 120.34 108.26C120.34 108.26 122.89 106.44 125.68 104.42C125.77 104.35 125.869 104.28 125.96 104.21C128.27 102.54 130.699 100.77 131.949 99.7999C132.189 99.6199 132.38 99.4699 132.519 99.3499C132.769 99.1399 133.009 98.9399 133.229 98.7499C134.129 97.9999 134.769 97.4599 134.969 97.1099C135.519 96.1599 137.639 88.4199 138.759 83.0399C138.899 82.3499 139.049 81.6899 139.198 81.0599C139.268 80.7499 139.348 80.4399 139.419 80.1399C139.788 78.6399 140.169 77.3299 140.538 76.1899C140.709 75.6599 140.879 75.1799 141.049 74.7199C141.108 74.5399 141.169 74.3699 141.238 74.2099C141.358 73.8899 141.478 73.5899 141.589 73.2999C141.809 72.7699 142.019 72.2999 142.219 71.8899C142.349 71.6299 142.469 71.3799 142.578 71.1599C142.738 70.8699 142.879 70.6199 143.009 70.3999C143.149 70.1599 143.279 69.9499 143.399 69.7699C143.449 69.6899 143.509 69.6099 143.559 69.5399C143.599 69.4799 143.629 69.4299 143.669 69.3899C143.698 69.3499 143.729 69.3099 143.749 69.2799C143.799 69.2099 143.839 69.1599 143.879 69.1199C143.889 69.0999 143.908 69.0899 143.919 69.0799C143.939 69.0499 143.948 69.0399 143.948 69.0399C144.808 68.3999 145.598 68.0299 146.288 67.8499C146.709 67.7399 147.099 67.6899 147.448 67.6899C147.549 67.6899 147.648 67.6899 147.738 67.6999C149.389 67.8199 150.269 68.9699 150.269 68.9699V68.9699Z" fill="#F7F7F7"/>
<path d="M166.959 54.8001C166.108 57.5801 163.658 59.2901 161.479 58.6201C160.949 58.4601 160.489 58.1701 160.099 57.7901C160.074 57.7756 160.053 57.755 160.038 57.7301C159.959 57.6501 159.879 57.5601 159.799 57.4701V57.4601C159.649 57.2901 159.519 57.1001 159.419 56.8901C159.33 56.7589 159.256 56.618 159.198 56.4701C159.178 56.4301 159.158 56.3801 159.138 56.3301C159.058 56.1301 158.988 55.9101 158.938 55.6901C158.688 54.6901 158.708 53.5401 159.058 52.3901C159.208 51.9001 159.408 51.4501 159.658 51.0401C160.169 50.1301 160.879 49.4101 161.669 48.9601C162.028 48.7601 162.398 48.6101 162.778 48.5201C163.358 48.3901 163.959 48.4001 164.538 48.5801C166.729 49.2401 167.809 52.0301 166.959 54.8001V54.8001Z" fill="#0B4870"/>
<path d="M170.349 114.06H142.679C142.899 113.05 143.099 112.11 143.279 111.28C143.289 111.24 143.3 111.2 143.3 111.16C143.38 110.78 143.46 110.43 143.529 110.11C143.67 109.44 143.789 108.89 143.869 108.5C143.939 108.19 143.979 107.99 144 107.9C144 107.88 144.01 107.87 144.01 107.86C144.01 107.85 144.02 107.84 144.03 107.83C144.04 107.8 144.06 107.76 144.08 107.73C144.131 107.65 144.2 107.53 144.29 107.38V107.37C144.4 107.18 144.54 106.95 144.711 106.68C146.49 103.79 151.521 96.58 157.191 96.45C159.141 96.4 161.171 97.18 163.161 99.26C164.182 100.31 165.191 101.7 166.161 103.48C167.031 105.03 167.871 106.89 168.691 109.08C169.304 110.719 169.857 112.381 170.349 114.06V114.06Z" fill="#EEBEA7"/>
<path d="M170.979 114.06H142.399C142.619 113.05 142.829 112.12 143.029 111.3C143.059 111.16 143.09 111.03 143.13 110.9C143.199 110.59 143.279 110.3 143.35 110.03C143.5 109.43 143.65 108.92 143.78 108.5C143.85 108.27 143.93 108.07 144.001 107.9C144.001 107.88 144.011 107.87 144.011 107.86C144.011 107.85 144.021 107.84 144.031 107.83C144.041 107.8 144.061 107.76 144.081 107.73C144.132 107.61 144.201 107.49 144.291 107.38V107.37C146.161 104.87 154.161 103.97 160.052 103.65H160.062C162.882 103.5 165.202 103.48 166.162 103.48H166.622C166.622 103.48 167.872 105.23 169.272 108.82C169.939 110.533 170.509 112.283 170.979 114.06V114.06Z" fill="#0E538C"/>
<path d="M165.328 100.18C165.919 101.16 170.509 108.03 170.509 108.03C170.189 108.32 169.769 108.58 169.269 108.82C169.089 108.91 168.899 109 168.689 109.08C165.689 110.31 160.509 110.93 155.579 111.08C152.829 111.16 150.17 111.1 147.989 110.92C147.159 110.85 146.399 110.76 145.739 110.65C144.779 110.51 144.029 110.32 143.529 110.11C143.469 110.09 143.409 110.06 143.349 110.03C143.029 109.87 142.859 109.69 142.868 109.49C142.889 109.24 142.929 108.91 143.009 108.51C143.038 108.3 143.089 108.06 143.139 107.8C143.809 104.44 145.409 98.1101 144.769 94.8301C144.439 93.1701 144.529 91.9701 144.619 90.8401V90.8301C144.75 89.2801 144.88 87.8601 143.88 85.5501C142.159 81.5801 141.329 78.1901 142.159 75.9301C142.539 74.8901 143.639 73.0301 144.809 71.3101C145.479 70.3301 146.179 69.4001 146.788 68.6801C147.139 68.2701 147.459 67.9301 147.738 67.7001C147.818 67.6201 147.898 67.5501 147.968 67.5001C148.128 67.3901 148.258 67.3201 148.367 67.3001C148.468 67.2801 148.588 67.2501 148.718 67.2101C148.878 67.1701 149.068 67.1101 149.268 67.0401C149.568 66.9401 149.908 66.8301 150.258 66.7001L151.638 66.1801C151.638 66.1801 151.648 66.1701 151.678 66.1601C151.958 66.0501 152.237 65.9401 152.478 65.8401C153.218 65.5501 153.748 65.3301 153.748 65.3301C155.508 65.0701 157.848 65.1101 159.348 65.3201C159.498 65.3401 159.638 65.3701 159.787 65.3901C160.058 65.4401 160.287 65.4901 160.468 65.5501C160.478 65.5501 160.488 65.5501 160.498 65.5601C160.577 65.5701 160.657 65.5901 160.737 65.6201C160.847 65.6401 160.958 65.6701 161.067 65.7001C162.677 66.0401 166.487 66.5601 168.897 67.6301C169.397 67.8601 169.837 68.1001 170.187 68.3701C172.847 70.4401 169.897 79.4101 169.897 79.4101C169.897 79.4101 166.307 91.1001 165.767 92.4701C165.657 92.7401 165.557 93.1601 165.457 93.6801C165.078 95.7801 164.859 99.3901 165.328 100.18V100.18Z" fill="#FFBE55"/>
<path d="M160.469 65.5499C156.288 73.5299 152.618 69.8499 152.618 69.8499C152.679 68.9899 152.599 67.4099 152.478 65.8399C152.478 65.7999 152.478 65.7599 152.468 65.7199C152.458 65.5299 152.438 65.3299 152.428 65.1399C152.378 64.5199 152.318 63.9099 152.268 63.3599C152.148 62.1399 152.058 61.2499 152.058 61.2499C152.058 61.2499 157.048 56.9899 159.198 56.4699C159.209 56.4699 159.218 56.4699 159.228 56.4599C159.388 56.4199 159.528 56.4099 159.648 56.4299C160.108 56.4499 160.298 56.8299 160.038 57.7299C160.038 57.7399 160.038 57.7599 160.028 57.7799C160.008 57.8499 159.988 57.9199 159.978 57.9799V57.9899C158.769 62.3599 160.469 65.5499 160.469 65.5499V65.5499Z" fill="#EEBEA7"/>
<path d="M161.669 48.96C161.618 51.33 160.839 54.02 159.648 56.43C159.588 56.57 159.518 56.7 159.459 56.82C159.439 56.85 159.429 56.87 159.419 56.89C158.969 57.75 158.469 58.56 157.939 59.3C157.849 59.42 157.759 59.54 157.669 59.65C156.479 61.24 155.108 62.47 153.729 63.02C153.679 63.04 153.619 63.07 153.569 63.09C153.46 63.14 153.349 63.17 153.25 63.2C152.93 63.29 152.6 63.35 152.289 63.36H152.269C150.269 63.45 148.359 61.87 147.039 57.68C145.85 53.89 145.56 50.92 145.779 48.61C146.38 42.28 150.809 40.89 150.809 40.89C150.809 40.89 160.399 38.72 161.579 47.38C161.649 47.88 161.679 48.41 161.669 48.96V48.96Z" fill="#EEBEA7"/>
<path d="M162.779 48.5201C162.829 52.6501 160.63 56.8401 160.099 57.7901C160.019 57.9201 159.979 57.9901 159.979 57.9901V57.9801C159.949 57.8301 159.889 57.6601 159.799 57.4701V57.4601C159.709 57.2601 159.589 57.0401 159.459 56.8201C159.379 56.7001 159.309 56.5801 159.229 56.4601C159.199 56.4101 159.169 56.3701 159.139 56.3301C159.029 56.1701 158.919 56.0001 158.809 55.8401C158.129 54.8701 157.369 53.9601 157.189 53.7401C157.169 53.727 157.152 53.71 157.139 53.6901C150.299 53.1901 146.199 49.1801 146.199 49.1801C146.019 49.0201 145.889 48.8201 145.779 48.6101C144.219 45.3701 150.069 36.6701 158.569 41.3301C161.729 43.0601 162.749 45.7701 162.779 48.5201V48.5201Z" fill="#0B4870"/>
<path d="M157.191 53.61C157.247 52.578 157.883 50.224 159.418 50.881C160.956 51.541 159.325 56.334 158.303 56.039C158.302 56.04 157.068 56.058 157.191 53.61Z" fill="#EEBEA7"/>
<path d="M157.939 59.3C157.929 59.35 157.739 60.2201 156.959 61.3801C156.179 62.5401 154.809 63.97 152.429 65.14C152.379 64.52 152.319 63.9101 152.269 63.3601H152.289C152.369 63.3701 152.71 63.3801 153.25 63.2001C153.35 63.1701 153.46 63.14 153.569 63.09C153.619 63.07 153.679 63.0401 153.729 63.0201C154.669 62.6001 156.029 61.6701 157.669 59.6501C157.759 59.5401 157.849 59.42 157.939 59.3V59.3Z" fill="#A77860"/>
<path d="M161.069 65.6999L152.059 77.1099L151.639 66.1799C151.639 66.1799 151.649 66.1699 151.679 66.1599C151.769 66.0799 152.029 65.9099 152.469 65.7199C153.569 65.2499 155.788 64.6599 159.349 65.3199C159.499 65.3399 159.639 65.3699 159.788 65.3899C160.009 65.4399 160.238 65.4899 160.469 65.5499C160.479 65.5499 160.489 65.5499 160.499 65.5599C160.578 65.5699 160.658 65.5899 160.738 65.6199C160.849 65.6399 160.959 65.6699 161.069 65.6999Z" fill="#F7F7F7"/>
<path opacity="0.9" d="M206.038 114.06V116.64C205.938 116.88 205.849 117.12 205.778 117.36C205.678 117.65 205.608 117.95 205.558 118.25C205.548 118.3 205.537 118.34 205.537 118.39H182.348V114.06H206.038V114.06Z" fill="#FFBE55"/>
<path d="M206.038 116.64V118.39H205.538C205.538 118.34 205.549 118.3 205.559 118.25C205.609 117.95 205.679 117.65 205.779 117.36C205.849 117.12 205.939 116.88 206.038 116.64V116.64Z" fill="#0E538C"/>
<path d="M62.738 114.06H182.348V118.39H62.738V114.06Z" fill="#FFBE55"/>
<path d="M134.389 103.25L133.139 104.42L125.959 104.21L110.979 103.79L109.299 103.74L109.059 103.73L104.399 103.6L92.219 103.25L83.939 77.12L85.189 75.95H127.368L133.229 98.75L134.389 103.25Z" fill="#F2F2F2"/>
<path d="M133.139 104.42H90.959L87.229 89.9201L83.939 77.1201H126.109L131.949 99.8001L133.139 104.42Z" fill="#D3D3D3"/>
<path d="M109.059 97.3301H110.979V112.12H109.059V97.3301Z" fill="#F2F2F2"/>
<path d="M118.129 114.06H112.049V112.12H116.198C117.269 112.12 118.129 112.99 118.129 114.06ZM104.399 97.3301H109.299V112.12H104.399V97.3301Z" fill="#F7F7F7"/>
<path d="M112.799 112.12V114.06H97.249C97.2472 113.806 97.2957 113.553 97.392 113.318C97.4882 113.082 97.6301 112.868 97.8096 112.688C97.989 112.507 98.2024 112.364 98.4375 112.267C98.6725 112.169 98.9246 112.12 99.179 112.12H112.799V112.12Z" fill="#D3D3D3"/>
<path opacity="0.5" d="M65.589 118.39V154.96H182.349V118.39H65.589V118.39ZM166.309 143.97H78.119V128.69H166.309V143.97Z" fill="#FFBE55"/>
<path opacity="0.9" d="M182.349 154.96H206.038V159.3H182.349V154.96Z" fill="#FFBE55"/>
<path d="M62.738 154.96H182.348V159.3H62.738V154.96Z" fill="#FFBE55"/>
<path opacity="0.5" d="M65.589 159.3H182.349V195.869H65.589V159.3Z" fill="#FFBE55"/>
<path opacity="0.9" d="M182.349 195.87H206.038V200.211H182.349V195.87Z" fill="#FFBE55"/>
<path opacity="0.7" d="M182.349 159.3H202.199V195.869H182.349V159.3Z" fill="#FFBE55"/>
<path d="M62.738 195.87H182.348V200.211H62.738V195.87Z" fill="#FFBE55"/>
<path d="M146.029 111.03L143.38 111.27L143.279 111.28L143.029 111.3L141.009 111.48C140.779 111.41 138.479 111.69 137.209 112.12C137.068 112.17 136.948 112.22 136.839 112.27C135.719 112.78 132.939 113.07 133.189 112.32C133.209 112.26 133.25 112.2 133.319 112.12C134.109 111.2 138.149 108.97 139.88 108.73C140.65 108.63 141.489 108.57 142.22 108.54L143.01 108.51C143.329 108.5 143.59 108.5 143.78 108.5H144.08L145.74 110.65L146.029 111.03V111.03Z" fill="#F1B99E"/>
<path d="M172.149 69.17C172.149 69.19 172.129 69.3 172.099 69.48C171.949 70.44 171.489 73.43 170.939 76.4C170.529 78.66 170.059 80.91 169.649 82.25C169.069 84.16 167.25 89.16 165.46 93.68C164.649 95.76 163.84 97.73 163.159 99.26C162.6 100.51 162.139 101.45 161.829 101.92C161.539 102.37 160.93 102.97 160.059 103.65H160.049C159.889 103.78 159.729 103.91 159.549 104.04C158.078 105.16 156.038 106.46 153.608 107.77C151.578 108.87 149.618 109.97 147.988 110.92C147.228 111.36 146.538 111.76 145.948 112.12C145.459 112.41 145.038 112.66 144.688 112.88C144.688 112.88 144.398 112.58 144.028 112.12C143.818 111.88 143.598 111.59 143.379 111.27C143.349 111.24 143.328 111.2 143.299 111.16C143.238 111.08 143.179 110.99 143.129 110.9C142.649 110.15 142.229 109.29 142.219 108.54V108.46L143.139 107.8C143.559 107.5 144.099 107.12 144.709 106.68C147.889 104.4 153.129 100.61 154.398 99.55C155.669 98.48 156.598 97.74 156.848 97.31C156.928 97.17 157.048 96.87 157.188 96.45C157.768 94.78 158.768 91.16 159.648 87.56C160.008 86.07 160.358 84.58 160.638 83.24C162.938 72.18 165.827 69.24 165.827 69.24C167.057 68.35 168.067 67.84 168.897 67.63C169.257 67.52 169.587 67.48 169.877 67.48C171.169 67.48 171.859 68.31 172.149 69.17V69.17Z" fill="#F7F7F7"/>
<path fill-rule="evenodd" clip-rule="evenodd" d="M152.069 77.2599L150.579 71.2899C150.369 71.2699 150.149 71.2199 149.93 71.1499C148.86 70.7999 147.67 69.9299 146.789 68.6799C146.41 68.1376 146.107 67.5453 145.89 66.9199C146.67 67.0899 147.31 67.3799 147.97 67.4999C148.94 67.6899 149.98 67.5399 151.64 66.1799L152.06 77.1099V77.1199L152.069 77.2599V77.2599Z" fill="#0E538C"/>
<path fill-rule="evenodd" clip-rule="evenodd" d="M152.059 77.1179L161.073 65.7019C161.875 70.0979 163.714 68.0659 165.69 69.0369C163.197 71.0089 159.116 73.0089 157.559 71.9979L152.059 77.1179Z" fill="#0E538C"/>
<path d="M142.411 78.7971L142.776 75.5778L149.553 76.3465L149.188 79.5658L142.411 78.7971Z" fill="#F7F7F7"/>
<path d="M78.118 128.69H166.308V143.97H78.118V128.69Z" fill="#FFBE55"/>
<path d="M116.199 112.12H152.269V114.06H116.199V112.12Z" fill="#F7F7F7"/>
</g>
<defs>
<clipPath id="clip0_209_336">
<rect width="313.035" height="214.08" fill="white"/>
</clipPath>
</defs>
</svg>
