<svg width="193" height="32" viewBox="0 0 193 32" fill="none" xmlns="http://www.w3.org/2000/svg">
<path d="M18.6829 9.72124C18.5607 8.48946 18.0365 7.53255 17.1101 6.8505C16.1837 6.16844 14.9265 5.82741 13.3384 5.82741C12.2594 5.82741 11.3482 5.98011 10.6051 6.28551C9.86198 6.58073 9.2919 6.99302 8.89489 7.52237C8.50805 8.05173 8.31463 8.65234 8.31463 9.32422C8.29427 9.88411 8.41134 10.3728 8.66584 10.7901C8.93052 11.2075 9.2919 11.5689 9.75 11.8743C10.2081 12.1695 10.7375 12.4291 11.3381 12.6531C11.9387 12.8668 12.58 13.0501 13.2621 13.2028L16.0717 13.8746C17.4358 14.18 18.688 14.5872 19.8281 15.0962C20.9683 15.6052 21.9557 16.2313 22.7905 16.9744C23.6252 17.7176 24.2717 18.593 24.7298 19.6009C25.198 20.6087 25.4373 21.7641 25.4474 23.0671C25.4373 24.9809 24.9486 26.6403 23.9815 28.0451C23.0246 29.4397 21.6402 30.5239 19.8281 31.2976C18.0263 32.0611 15.8529 32.4428 13.3079 32.4428C10.7833 32.4428 8.5844 32.056 6.71129 31.2823C4.84837 30.5086 3.39264 29.3634 2.34411 27.8466C1.30575 26.3196 0.761127 24.4312 0.710227 22.1815H7.10831C7.17957 23.23 7.47988 24.1055 8.00923 24.8079C8.54877 25.5001 9.26645 26.0244 10.1623 26.3807C11.0683 26.7268 12.0914 26.8999 13.2315 26.8999C14.3513 26.8999 15.3235 26.737 16.1481 26.4112C16.9828 26.0855 17.6293 25.6325 18.0874 25.0522C18.5455 24.4719 18.7745 23.8052 18.7745 23.0518C18.7745 22.3494 18.5658 21.759 18.1484 21.2805C17.7412 20.8021 17.1406 20.3949 16.3466 20.0589C15.5627 19.723 14.6007 19.4176 13.4606 19.1428L10.0554 18.2876C7.4188 17.6463 5.337 16.6436 3.81001 15.2795C2.28303 13.9154 1.52462 12.0779 1.5348 9.76704C1.52462 7.87358 2.02853 6.21934 3.04652 4.80433C4.07469 3.38932 5.48461 2.2848 7.27628 1.49077C9.06795 0.696732 11.1039 0.299715 13.3842 0.299715C15.7053 0.299715 17.7311 0.696732 19.4616 1.49077C21.2024 2.2848 22.5563 3.38932 23.5234 4.80433C24.4905 6.21934 24.9893 7.85831 25.0199 9.72124H18.6829ZM29.7726 32V8.54545H35.9722V12.6836H36.2471C36.7357 11.3093 37.5501 10.2251 38.6903 9.43111C39.8304 8.63707 41.1945 8.24006 42.7826 8.24006C44.391 8.24006 45.7602 8.64216 46.8902 9.44638C48.0202 10.2404 48.7735 11.3195 49.1501 12.6836H49.3944C49.8729 11.3398 50.7382 10.2659 51.9903 9.46165C53.2526 8.64725 54.744 8.24006 56.4644 8.24006C58.6531 8.24006 60.4295 8.93738 61.7936 10.332C63.1679 11.7165 63.855 13.6812 63.855 16.2262V32H57.3653V17.5089C57.3653 16.2058 57.0192 15.2286 56.327 14.5771C55.6347 13.9255 54.7694 13.5998 53.7311 13.5998C52.5502 13.5998 51.6289 13.9764 50.9672 14.7298C50.3055 15.4729 49.9747 16.4553 49.9747 17.6768V32H43.6682V17.3714C43.6682 16.2211 43.3374 15.3049 42.6757 14.6229C42.0242 13.9408 41.164 13.5998 40.0951 13.5998C39.3723 13.5998 38.7208 13.783 38.1405 14.1495C37.5705 14.5058 37.1175 15.0097 36.7815 15.6612C36.4456 16.3026 36.2776 17.0559 36.2776 17.9212V32H29.7726ZM75.6816 32.4428C74.1851 32.4428 72.8515 32.1832 71.6808 31.6641C70.5102 31.1347 69.5838 30.3559 68.9017 29.3278C68.2298 28.2894 67.8939 26.9966 67.8939 25.4492C67.8939 24.1462 68.1331 23.0518 68.6116 22.1662C69.0901 21.2805 69.7416 20.5679 70.5661 20.0284C71.3907 19.4889 72.3273 19.0817 73.3758 18.8068C74.4345 18.532 75.5441 18.3385 76.7046 18.2266C78.0687 18.084 79.1682 17.9517 80.0029 17.8295C80.8377 17.6972 81.4434 17.5038 81.82 17.2493C82.1967 16.9948 82.385 16.6181 82.385 16.1193V16.0277C82.385 15.0606 82.0796 14.3124 81.4688 13.783C80.8682 13.2537 80.0131 12.989 78.9035 12.989C77.7328 12.989 76.8013 13.2486 76.1091 13.7678C75.4169 14.2768 74.9588 14.9181 74.7348 15.6918L68.7185 15.2031C69.0239 13.7779 69.6245 12.5462 70.5203 11.5078C71.4162 10.4593 72.5716 9.65506 73.9866 9.09517C75.4118 8.52509 77.0609 8.24006 78.934 8.24006C80.2371 8.24006 81.4841 8.39276 82.6752 8.69815C83.8764 9.00355 84.9402 9.47692 85.8666 10.1183C86.8031 10.7596 87.5412 11.5842 88.0807 12.592C88.6202 13.5896 88.89 14.7857 88.89 16.1804V32H82.721V28.7475H82.5377C82.1611 29.4805 81.6572 30.1269 81.026 30.6868C80.3949 31.2365 79.6365 31.6692 78.7508 31.9847C77.8651 32.2901 76.8421 32.4428 75.6816 32.4428ZM77.5445 27.9535C78.5014 27.9535 79.3463 27.7652 80.0793 27.3885C80.8122 27.0017 81.3874 26.4825 81.8048 25.831C82.2222 25.1795 82.4308 24.4414 82.4308 23.6168V21.1278C82.2272 21.2602 81.9473 21.3823 81.591 21.4943C81.2449 21.5961 80.853 21.6928 80.4152 21.7844C79.9775 21.8659 79.5397 21.9422 79.102 22.0135C78.6643 22.0746 78.2673 22.1306 77.911 22.1815C77.1475 22.2934 76.4807 22.4716 75.9106 22.7159C75.3405 22.9602 74.8977 23.2911 74.5821 23.7085C74.2665 24.1156 74.1088 24.6246 74.1088 25.2354C74.1088 26.1211 74.4294 26.7981 75.0708 27.2663C75.7223 27.7244 76.5468 27.9535 77.5445 27.9535ZM100.442 0.727272V32H93.9367V0.727272H100.442ZM112.157 0.727272V32H105.653V0.727272H112.157ZM117.491 32V0.727272H130.012C132.312 0.727272 134.231 1.0683 135.769 1.75035C137.306 2.43241 138.461 3.37914 139.235 4.59055C140.008 5.79178 140.395 7.17625 140.395 8.74396C140.395 9.96555 140.151 11.0395 139.662 11.9659C139.174 12.8821 138.502 13.6354 137.647 14.2259C136.802 14.8061 135.835 15.2184 134.745 15.4627V15.7681C135.937 15.819 137.051 16.1549 138.09 16.7759C139.138 17.3969 139.988 18.2673 140.64 19.3871C141.291 20.4967 141.617 21.8201 141.617 23.3572C141.617 25.0166 141.205 26.4978 140.38 27.8008C139.566 29.0936 138.359 30.1167 136.761 30.87C135.163 31.6233 133.193 32 130.852 32H117.491ZM124.102 26.5945H129.493C131.335 26.5945 132.679 26.2433 133.524 25.5408C134.369 24.8282 134.791 23.8815 134.791 22.7006C134.791 21.8353 134.583 21.0719 134.165 20.4102C133.748 19.7485 133.152 19.2293 132.379 18.8526C131.615 18.476 130.704 18.2876 129.645 18.2876H124.102V26.5945ZM124.102 13.8136H129.004C129.91 13.8136 130.714 13.6558 131.417 13.3402C132.129 13.0144 132.689 12.5563 133.096 11.9659C133.514 11.3755 133.722 10.668 133.722 9.8434C133.722 8.71342 133.32 7.80232 132.516 7.11008C131.722 6.41785 130.592 6.07173 129.126 6.07173H124.102V13.8136ZM160.838 22.0135V8.54545H167.343V32H161.097V27.7397H160.853C160.324 29.114 159.443 30.2185 158.211 31.0533C156.99 31.888 155.499 32.3054 153.737 32.3054C152.17 32.3054 150.79 31.9491 149.599 31.2365C148.408 30.5239 147.477 29.511 146.805 28.1978C146.143 26.8846 145.807 25.3118 145.797 23.4794V8.54545H152.302V22.3189C152.312 23.7034 152.684 24.7977 153.417 25.6019C154.15 26.4061 155.132 26.8082 156.364 26.8082C157.148 26.8082 157.881 26.6301 158.563 26.2738C159.245 25.9073 159.794 25.3678 160.212 24.6552C160.639 23.9426 160.848 23.062 160.838 22.0135ZM172.424 32V28.1214L183.907 13.9052V13.7372H172.821V8.54545H191.74V12.7752L180.96 26.6403V26.8082H192.137V32H172.424Z" fill="#18216D"/>
</svg>
